<?xml version="1.0" encoding="UTF-8"?>
<!DOCTYPE svg PUBLIC "-//W3C//DTD SVG 1.1//EN" "http://www.w3.org/Graphics/SVG/1.1/DTD/svg11.dtd">
<svg xmlns="http://www.w3.org/2000/svg" version="1.1" width="416px" height="416px" style="shape-rendering:geometricPrecision; text-rendering:geometricPrecision; image-rendering:optimizeQuality; fill-rule:evenodd; clip-rule:evenodd" xmlns:xlink="http://www.w3.org/1999/xlink">
<g><path style="opacity:0.055" fill="#f7ebe9" d="M 177.5,94.5 C 182.511,94.3341 187.511,94.5007 192.5,95C 206.948,100.724 221.282,106.724 235.5,113C 252.837,114.046 270.171,114.713 287.5,115C 301.131,120.972 310.297,131.139 315,145.5C 317.451,152.639 318.951,159.972 319.5,167.5C 316.638,185.616 313.138,203.616 309,221.5C 308.464,225.451 306.964,228.951 304.5,232C 280.401,245.739 254.734,250.072 227.5,245C 208.709,242.052 190.376,237.386 172.5,231C 152.087,221.913 136.087,207.913 124.5,189C 128.841,169.446 133.341,149.946 138,130.5C 146.336,112.989 159.503,100.989 177.5,94.5 Z"/></g>
<g><path style="opacity:0.984" fill="#bf5553" d="M 298.5,124.5 C 300.914,125.911 302.581,127.911 303.5,130.5C 300.739,129.407 299.073,127.407 298.5,124.5 Z"/></g>
<g><path style="opacity:1" fill="#c0483f" d="M 234.5,115.5 C 251.469,116.291 268.469,116.791 285.5,117C 290.519,118.503 294.852,121.003 298.5,124.5C 295.478,124.196 292.478,123.696 289.5,123C 288.833,121 287.5,119.667 285.5,119C 269.167,118.667 252.833,118.333 236.5,118C 235.619,117.292 234.953,116.458 234.5,115.5 Z"/></g>
<g><path style="opacity:1" fill="#c2584a" d="M 222.5,111.5 C 226.775,112.319 230.775,113.653 234.5,115.5C 229.832,115.781 225.832,114.448 222.5,111.5 Z"/></g>
<g><path style="opacity:0.941" fill="#c07169" d="M 159.5,107.5 C 157.167,110.5 154.5,113.167 151.5,115.5C 153.167,111.833 155.833,109.167 159.5,107.5 Z"/></g>
<g><path style="opacity:0.875" fill="#cb7b76" d="M 207.5,104.5 C 207.5,104.167 207.5,103.833 207.5,103.5C 209.153,103.66 210.486,104.326 211.5,105.5C 210.041,105.567 208.708,105.234 207.5,104.5 Z"/></g>
<g><path style="opacity:1" fill="#c2574f" d="M 177.5,97.5 C 177.5,98.5 177.5,99.5 177.5,100.5C 175.473,100.338 173.473,100.505 171.5,101C 167.737,103.64 163.737,105.807 159.5,107.5C 164.293,102.101 170.293,98.7677 177.5,97.5 Z"/></g>
<g><path style="opacity:1" fill="#c2443c" d="M 190.5,98.5 C 192.167,98.5 193.833,98.5 195.5,98.5C 199.691,99.7837 203.691,101.45 207.5,103.5C 207.5,103.833 207.5,104.167 207.5,104.5C 204.438,104.156 201.438,103.489 198.5,102.5C 195.659,101.292 192.993,99.9586 190.5,98.5 Z"/></g>
<g><path style="opacity:1" fill="#cb3432" d="M 177.5,97.5 C 182.032,97.1818 186.366,97.5151 190.5,98.5C 192.993,99.9586 195.659,101.292 198.5,102.5C 201.438,103.489 204.438,104.156 207.5,104.5C 208.708,105.234 210.041,105.567 211.5,105.5C 215.46,107.138 219.126,109.138 222.5,111.5C 225.832,114.448 229.832,115.781 234.5,115.5C 234.953,116.458 235.619,117.292 236.5,118C 252.833,118.333 269.167,118.667 285.5,119C 287.5,119.667 288.833,121 289.5,123C 292.478,123.696 295.478,124.196 298.5,124.5C 299.073,127.407 300.739,129.407 303.5,130.5C 303.561,134.071 305.227,136.404 308.5,137.5C 309.19,142.257 310.19,146.924 311.5,151.5C 310.876,151.917 310.543,152.584 310.5,153.5C 312.29,155.87 313.29,158.536 313.5,161.5C 314.099,170.251 313.432,178.918 311.5,187.5C 309.976,194.722 308.976,202.056 308.5,209.5C 307.89,210.391 307.557,211.391 307.5,212.5C 304.946,216.69 303.946,221.357 304.5,226.5C 303.5,226.5 302.5,226.5 301.5,226.5C 301.5,227.5 301.5,228.5 301.5,229.5C 301.5,229.833 301.5,230.167 301.5,230.5C 300.167,230.833 298.833,231.167 297.5,231.5C 295.143,231.337 292.81,231.503 290.5,232C 288.967,234.029 287.301,235.862 285.5,237.5C 283.095,238.768 280.428,239.435 277.5,239.5C 274.126,239.674 270.793,240.174 267.5,241C 266.944,241.383 266.611,241.883 266.5,242.5C 256.828,242.666 247.161,242.5 237.5,242C 229.3,240.116 220.966,238.616 212.5,237.5C 208.415,237.624 204.749,236.624 201.5,234.5C 199.524,232.989 197.191,232.156 194.5,232C 194.002,230.842 193.169,230.009 192,229.5C 187.513,230.628 183.013,230.628 178.5,229.5C 176.412,228.061 174.079,227.394 171.5,227.5C 169.426,226.486 167.426,225.486 165.5,224.5C 162.825,219.83 158.825,217.163 153.5,216.5C 152.416,214.681 151.082,213.015 149.5,211.5C 148.754,210.264 148.421,208.93 148.5,207.5C 146.5,207.5 144.5,207.5 142.5,207.5C 140.382,204.385 138.716,201.052 137.5,197.5C 136.167,197.5 134.833,197.5 133.5,197.5C 134.211,194.136 133.044,191.803 130,190.5C 129.493,184.534 130.493,178.868 133,173.5C 133.499,169.179 133.666,164.846 133.5,160.5C 133.833,159.833 134.167,159.167 134.5,158.5C 136.402,155.663 137.069,152.329 136.5,148.5C 136.5,148.167 136.5,147.833 136.5,147.5C 137.496,147.586 138.329,147.252 139,146.5C 139.382,141.305 140.549,136.305 142.5,131.5C 143.086,131.709 143.586,132.043 144,132.5C 145.127,129.623 145.794,126.623 146,123.5C 147,122.833 148,122.167 149,121.5C 149.236,119.189 150.069,117.189 151.5,115.5C 154.5,113.167 157.167,110.5 159.5,107.5C 163.737,105.807 167.737,103.64 171.5,101C 173.473,100.505 175.473,100.338 177.5,100.5C 177.5,99.5 177.5,98.5 177.5,97.5 Z"/></g>
<g><path style="opacity:0.922" fill="#c56e62" d="M 177.5,97.5 C 179.641,96.8367 181.975,96.5034 184.5,96.5C 188.447,96.3629 192.114,97.0296 195.5,98.5C 193.833,98.5 192.167,98.5 190.5,98.5C 186.366,97.5151 182.032,97.1818 177.5,97.5 Z"/></g>
<g><path style="opacity:1" fill="#c44c45" d="M 151.5,115.5 C 150.069,117.189 149.236,119.189 149,121.5C 148,122.167 147,122.833 146,123.5C 145.794,126.623 145.127,129.623 144,132.5C 143.586,132.043 143.086,131.709 142.5,131.5C 140.549,136.305 139.382,141.305 139,146.5C 138.329,147.252 137.496,147.586 136.5,147.5C 137.969,141.991 139.136,136.324 140,130.5C 143,125.833 146,121.167 149,116.5C 149.671,115.748 150.504,115.414 151.5,115.5 Z"/></g>
<g><path style="opacity:1" fill="#c25854" d="M 303.5,130.5 C 305.9,132.296 307.567,134.63 308.5,137.5C 305.227,136.404 303.561,134.071 303.5,130.5 Z"/></g>
<g><path style="opacity:1" fill="#c2544c" d="M 308.5,137.5 C 309.848,140.492 311.348,143.492 313,146.5C 313.822,149.117 314.322,151.784 314.5,154.5C 312.856,154.19 311.856,153.19 311.5,151.5C 310.19,146.924 309.19,142.257 308.5,137.5 Z"/></g>
<g><path style="opacity:1" fill="#c13c36" d="M 311.5,151.5 C 311.856,153.19 312.856,154.19 314.5,154.5C 317.124,164.571 316.79,174.571 313.5,184.5C 312.833,185.5 312.167,186.5 311.5,187.5C 313.432,178.918 314.099,170.251 313.5,161.5C 313.29,158.536 312.29,155.87 310.5,153.5C 310.543,152.584 310.876,151.917 311.5,151.5 Z"/></g>
<g><path style="opacity:1" fill="#bd4841" d="M 136.5,148.5 C 137.069,152.329 136.402,155.663 134.5,158.5C 134.753,154.96 135.419,151.627 136.5,148.5 Z"/></g>
<g><path style="opacity:1" fill="#c04e46" d="M 133.5,160.5 C 133.666,164.846 133.499,169.179 133,173.5C 130.493,178.868 129.493,184.534 130,190.5C 133.044,191.803 134.211,194.136 133.5,197.5C 130.626,194.926 128.626,191.76 127.5,188C 129.775,178.834 131.775,169.667 133.5,160.5 Z"/></g>
<g><path style="opacity:1" fill="#cb3432" d="M 110.5,203.5 C 111.412,206.747 113.412,209.08 116.5,210.5C 117.5,210.833 118.167,211.5 118.5,212.5C 119.08,214.749 120.413,216.415 122.5,217.5C 124.833,219.167 126.833,221.167 128.5,223.5C 129.038,225.117 129.371,226.784 129.5,228.5C 127.058,228.119 126.391,228.786 127.5,230.5C 130.048,231.767 132.714,232.6 135.5,233C 131.71,236.123 132.377,236.956 137.5,235.5C 141.506,239.767 146.506,241.934 152.5,242C 155.226,243.688 158.059,245.188 161,246.5C 162.325,248.981 162.825,251.481 162.5,254C 164.061,254.188 164.728,253.355 164.5,251.5C 169.781,252.556 175.114,253.223 180.5,253.5C 182.806,253.993 185.139,254.326 187.5,254.5C 188.568,255.434 189.901,255.768 191.5,255.5C 191.5,255.833 191.5,256.167 191.5,256.5C 192.974,257.675 194.64,258.675 196.5,259.5C 201.599,260.067 206.432,261.401 211,263.5C 213.434,262.678 215.934,262.344 218.5,262.5C 221.764,263.324 225.098,263.658 228.5,263.5C 242.762,265.04 257.095,264.706 271.5,262.5C 275.389,262.776 279.056,263.109 282.5,263.5C 283.386,262.675 283.719,261.675 283.5,260.5C 287.979,260.464 292.312,259.631 296.5,258C 297.381,257.292 298.047,256.458 298.5,255.5C 301.446,254.027 304.446,252.527 307.5,251C 308.71,249.961 309.71,248.794 310.5,247.5C 313.856,248.138 315.856,246.804 316.5,243.5C 317.167,243.5 317.833,243.5 318.5,243.5C 320.774,242.403 322.941,241.07 325,239.5C 326.766,240.233 328.599,240.567 330.5,240.5C 330.5,241.5 330.5,242.5 330.5,243.5C 336.128,243.393 340.295,245.727 343,250.5C 346.137,251.361 349.303,252.027 352.5,252.5C 352.703,254.044 353.37,255.378 354.5,256.5C 359.576,258.212 363.576,261.212 366.5,265.5C 365.295,267.138 363.962,267.471 362.5,266.5C 359.749,269.055 360.416,270.055 364.5,269.5C 364.33,270.822 364.663,271.989 365.5,273C 368.729,273.586 371.729,273.086 374.5,271.5C 375.833,272.167 376.833,273.167 377.5,274.5C 379.951,278.62 381.951,282.953 383.5,287.5C 383.83,292.219 383.163,296.885 381.5,301.5C 381.167,301.5 380.833,301.5 380.5,301.5C 376.759,300.599 374.759,301.932 374.5,305.5C 372.202,306.31 369.868,307.144 367.5,308C 366.748,308.671 366.414,309.504 366.5,310.5C 366.167,310.5 365.833,310.5 365.5,310.5C 353.582,313.639 341.582,316.472 329.5,319C 325.304,319.664 321.138,319.497 317,318.5C 312.918,319.817 308.752,320.817 304.5,321.5C 286.843,322.666 269.176,322.833 251.5,322C 250.226,320.779 248.726,319.946 247,319.5C 238.542,320.457 230.042,320.79 221.5,320.5C 218.57,319.701 215.57,319.368 212.5,319.5C 212.158,318.662 211.492,318.328 210.5,318.5C 206.262,316.044 201.596,315.044 196.5,315.5C 188.112,312.355 179.445,310.355 170.5,309.5C 170.167,309.5 169.833,309.5 169.5,309.5C 167.485,308.076 165.152,307.41 162.5,307.5C 161.508,307.672 160.842,307.338 160.5,306.5C 156.699,303.925 152.365,302.592 147.5,302.5C 146.833,302.5 146.167,302.5 145.5,302.5C 143.824,300.166 141.491,299.166 138.5,299.5C 137.167,299.167 135.833,298.833 134.5,298.5C 132.824,296.166 130.491,295.166 127.5,295.5C 126.833,295.5 126.5,295.167 126.5,294.5C 123.749,292.025 120.416,291.025 116.5,291.5C 113.868,290.528 111.535,289.195 109.5,287.5C 105.699,281.938 100.366,279.605 93.5,280.5C 93.0269,279.094 92.0269,278.427 90.5,278.5C 88.1815,278.008 86.1815,277.008 84.5,275.5C 84.5,274.5 84.5,273.5 84.5,272.5C 80.0922,272.42 76.7588,270.42 74.5,266.5C 72.604,265.534 70.604,265.201 68.5,265.5C 68.631,264.761 68.4643,264.094 68,263.5C 64.7283,260.716 61.5616,257.882 58.5,255C 56.0734,253.409 53.4067,252.575 50.5,252.5C 49.4154,250.413 47.7488,249.08 45.5,248.5C 40.7923,244.793 36.7923,240.46 33.5,235.5C 32.7841,232.402 31.2841,229.736 29,227.5C 28.4357,224.845 27.9357,222.179 27.5,219.5C 28.6577,215.029 30.6577,211.029 33.5,207.5C 38.5897,205.788 43.2564,203.288 47.5,200C 50.8772,199.548 54.2105,198.882 57.5,198C 59.1558,196.171 61.1558,194.837 63.5,194C 67.566,193.484 71.566,192.65 75.5,191.5C 78.8647,192.075 82.1981,192.742 85.5,193.5C 89.1397,192.48 92.8064,191.98 96.5,192C 97.9973,193.871 99.9973,194.871 102.5,195C 103.679,199.343 106.346,202.177 110.5,203.5 Z"/></g>
<g><path style="opacity:1" fill="#c2584e" d="M 313.5,184.5 C 311.966,192.952 310.299,201.286 308.5,209.5C 308.976,202.056 309.976,194.722 311.5,187.5C 312.167,186.5 312.833,185.5 313.5,184.5 Z"/></g>
<g><path style="opacity:0.037" fill="#f9ede9" d="M 379.5,306.5 C 380.075,304.589 381.075,302.922 382.5,301.5C 382.5,300.833 382.833,300.5 383.5,300.5C 384.906,300.027 385.573,299.027 385.5,297.5C 386.744,292.702 386.744,288.035 385.5,283.5C 385.573,281.973 384.906,280.973 383.5,280.5C 383.573,278.973 382.906,277.973 381.5,277.5C 379.906,274.236 377.573,271.569 374.5,269.5C 372.833,267.5 371.167,265.5 369.5,263.5C 368.415,261.413 366.749,260.08 364.5,259.5C 361.883,258.214 359.55,256.547 357.5,254.5C 357.027,253.094 356.027,252.427 354.5,252.5C 353.833,252.5 353.167,252.5 352.5,252.5C 350.704,250.1 348.37,248.433 345.5,247.5C 344.738,245.738 343.404,244.738 341.5,244.5C 340.391,244.443 339.391,244.11 338.5,243.5C 338.027,242.094 337.027,241.427 335.5,241.5C 332.256,240.537 329.256,239.204 326.5,237.5C 325.399,236.402 324.066,236.235 322.5,237C 320.294,239.037 318.294,241.203 316.5,243.5C 314.147,244.34 312.147,245.674 310.5,247.5C 305.469,250.22 300.469,252.886 295.5,255.5C 295.167,255.5 294.833,255.5 294.5,255.5C 291.848,255.41 289.515,256.076 287.5,257.5C 285.102,257.259 283.102,257.926 281.5,259.5C 277.96,259.753 274.627,260.419 271.5,261.5C 257.231,263.143 242.897,263.81 228.5,263.5C 225.373,262.419 222.04,261.753 218.5,261.5C 215.721,261.721 213.054,261.388 210.5,260.5C 208.485,259.076 206.152,258.41 203.5,258.5C 202.833,258.5 202.167,258.5 201.5,258.5C 198.495,256.723 195.162,255.723 191.5,255.5C 189.901,255.768 188.568,255.434 187.5,254.5C 185.485,253.076 183.152,252.41 180.5,252.5C 179.609,251.89 178.609,251.557 177.5,251.5C 174.691,249.103 171.358,247.77 167.5,247.5C 167.167,247.5 166.833,247.5 166.5,247.5C 166.027,246.094 165.027,245.427 163.5,245.5C 160.515,244.674 157.849,243.341 155.5,241.5C 155.027,240.094 154.027,239.427 152.5,239.5C 150.407,238.955 148.407,238.122 146.5,237C 140.623,232.283 134.623,227.783 128.5,223.5C 126.833,221.167 124.833,219.167 122.5,217.5C 121.92,215.251 120.587,213.585 118.5,212.5C 118.167,211.5 117.5,210.833 116.5,210.5C 114.745,207.32 112.745,204.32 110.5,201.5C 109.915,196.9 107.915,193.066 104.5,190C 92.6525,187.881 80.9858,188.047 69.5,190.5C 65.9601,190.753 62.6267,191.419 59.5,192.5C 57.3736,193.048 55.3736,193.715 53.5,194.5C 50.8427,194.935 48.5093,195.935 46.5,197.5C 44.326,197.75 42.6594,198.75 41.5,200.5C 34.9471,203.054 29.9471,207.387 26.5,213.5C 24.7411,222.017 27.0744,229.35 33.5,235.5C 36.7923,240.46 40.7923,244.793 45.5,248.5C 46.5846,250.587 48.2512,251.92 50.5,252.5C 50.5,253.167 50.8333,253.5 51.5,253.5C 52.5846,255.587 54.2512,256.92 56.5,257.5C 60.1477,260.66 64.1477,263.327 68.5,265.5C 73.5218,269.344 78.8551,272.677 84.5,275.5C 86.1815,277.008 88.1815,278.008 90.5,278.5C 90.9731,279.906 91.9731,280.573 93.5,280.5C 98.3904,283.585 103.724,285.918 109.5,287.5C 111.535,289.195 113.868,290.528 116.5,291.5C 119.505,293.277 122.838,294.277 126.5,294.5C 126.5,295.167 126.833,295.5 127.5,295.5C 129.509,297.065 131.843,298.065 134.5,298.5C 135.833,298.833 137.167,299.167 138.5,299.5C 140.509,301.065 142.843,302.065 145.5,302.5C 146.167,302.5 146.833,302.5 147.5,302.5C 151.301,305.075 155.635,306.408 160.5,306.5C 160.842,307.338 161.508,307.672 162.5,307.5C 164.515,308.924 166.848,309.59 169.5,309.5C 169.833,309.5 170.167,309.5 170.5,309.5C 177.418,311.793 184.418,313.793 191.5,315.5C 189.585,315.216 187.919,315.549 186.5,316.5C 137.028,305.853 91.6944,286.02 50.5,257C 40.2036,249.041 31.7036,239.541 25,228.5C 20.9294,218.243 23.4294,209.743 32.5,203C 49.8289,191.373 68.9956,185.873 90,186.5C 95.8668,186.616 101.7,187.116 107.5,188C 116.893,209.396 131.893,225.73 152.5,237C 191.736,258.595 233.403,265.595 277.5,258C 294.459,254.522 309.126,246.856 321.5,235C 323.5,234.333 325.5,234.333 327.5,235C 349.671,243.988 368.504,257.488 384,275.5C 389.918,283.28 390.918,291.613 387,300.5C 384.894,303.118 382.394,305.118 379.5,306.5 Z"/></g>
<g><path style="opacity:0.988" fill="#c66c57" d="M 59.5,192.5 C 60.5,192.5 61.5,192.5 62.5,192.5C 59.8291,194.118 56.8291,194.785 53.5,194.5C 55.3736,193.715 57.3736,193.048 59.5,192.5 Z"/></g>
<g><path style="opacity:1" fill="#c96a57" d="M 110.5,201.5 C 108.705,198.596 106.872,195.596 105,192.5C 103.933,191.809 102.766,191.309 101.5,191C 90.8385,190.5 80.1719,190.333 69.5,190.5C 80.9858,188.047 92.6525,187.881 104.5,190C 107.915,193.066 109.915,196.9 110.5,201.5 Z"/></g>
<g><path style="opacity:0.976" fill="#d17f6b" d="M 69.5,190.5 C 67.5615,192.163 65.2282,192.829 62.5,192.5C 61.5,192.5 60.5,192.5 59.5,192.5C 62.6267,191.419 65.9601,190.753 69.5,190.5 Z"/></g>
<g><path style="opacity:1" fill="#c5392d" d="M 69.5,190.5 C 80.1719,190.333 90.8385,190.5 101.5,191C 102.766,191.309 103.933,191.809 105,192.5C 106.872,195.596 108.705,198.596 110.5,201.5C 110.5,202.167 110.5,202.833 110.5,203.5C 106.346,202.177 103.679,199.343 102.5,195C 99.9973,194.871 97.9973,193.871 96.5,192C 92.8064,191.98 89.1397,192.48 85.5,193.5C 82.1981,192.742 78.8647,192.075 75.5,191.5C 71.566,192.65 67.566,193.484 63.5,194C 61.1558,194.837 59.1558,196.171 57.5,198C 54.2105,198.882 50.8772,199.548 47.5,200C 43.2564,203.288 38.5897,205.788 33.5,207.5C 36.2183,205.108 38.885,202.774 41.5,200.5C 43.8477,200.408 45.5144,199.408 46.5,197.5C 49.491,197.834 51.8243,196.834 53.5,194.5C 56.8291,194.785 59.8291,194.118 62.5,192.5C 65.2282,192.829 67.5615,192.163 69.5,190.5 Z"/></g>
<g><path style="opacity:0.98" fill="#ca725f" d="M 53.5,194.5 C 51.8243,196.834 49.491,197.834 46.5,197.5C 48.5093,195.935 50.8427,194.935 53.5,194.5 Z"/></g>
<g><path style="opacity:1" fill="#be4c43" d="M 133.5,197.5 C 134.833,197.5 136.167,197.5 137.5,197.5C 138.716,201.052 140.382,204.385 142.5,207.5C 138.788,204.789 135.788,201.456 133.5,197.5 Z"/></g>
<g><path style="opacity:0.992" fill="#cc765f" d="M 46.5,197.5 C 45.5144,199.408 43.8477,200.408 41.5,200.5C 42.6594,198.75 44.326,197.75 46.5,197.5 Z"/></g>
<g><path style="opacity:0.957" fill="#cf7b64" d="M 41.5,200.5 C 38.885,202.774 36.2183,205.108 33.5,207.5C 31.1667,209.5 28.8333,211.5 26.5,213.5C 29.9471,207.387 34.9471,203.054 41.5,200.5 Z"/></g>
<g><path style="opacity:1" fill="#c65c4b" d="M 110.5,201.5 C 112.745,204.32 114.745,207.32 116.5,210.5C 113.412,209.08 111.412,206.747 110.5,203.5C 110.5,202.833 110.5,202.167 110.5,201.5 Z"/></g>
<g><path style="opacity:1" fill="#c3574e" d="M 142.5,207.5 C 144.5,207.5 146.5,207.5 148.5,207.5C 148.421,208.93 148.754,210.264 149.5,211.5C 151.082,213.015 152.416,214.681 153.5,216.5C 149.537,213.871 145.871,210.871 142.5,207.5 Z"/></g>
<g><path style="opacity:0.961" fill="#d27a6b" d="M 118.5,212.5 C 120.587,213.585 121.92,215.251 122.5,217.5C 120.413,216.415 119.08,214.749 118.5,212.5 Z"/></g>
<g><path style="opacity:1" fill="#be564b" d="M 153.5,216.5 C 158.825,217.163 162.825,219.83 165.5,224.5C 161.148,222.327 157.148,219.66 153.5,216.5 Z"/></g>
<g><path style="opacity:1" fill="#bd4c40" d="M 307.5,212.5 C 306.993,217.547 306.16,222.547 305,227.5C 304.184,228.823 303.017,229.489 301.5,229.5C 301.5,228.5 301.5,227.5 301.5,226.5C 302.5,226.5 303.5,226.5 304.5,226.5C 303.946,221.357 304.946,216.69 307.5,212.5 Z"/></g>
<g><path style="opacity:1" fill="#be4d3e" d="M 33.5,207.5 C 30.6577,211.029 28.6577,215.029 27.5,219.5C 27.9357,222.179 28.4357,224.845 29,227.5C 31.2841,229.736 32.7841,232.402 33.5,235.5C 27.0744,229.35 24.7411,222.017 26.5,213.5C 28.8333,211.5 31.1667,209.5 33.5,207.5 Z"/></g>
<g><path style="opacity:1" fill="#c16b62" d="M 171.5,227.5 C 174.079,227.394 176.412,228.061 178.5,229.5C 178.5,229.833 178.5,230.167 178.5,230.5C 175.843,230.065 173.509,229.065 171.5,227.5 Z"/></g>
<g><path style="opacity:1" fill="#c43c3a" d="M 178.5,230.5 C 178.5,230.167 178.5,229.833 178.5,229.5C 183.013,230.628 187.513,230.628 192,229.5C 193.169,230.009 194.002,230.842 194.5,232C 197.191,232.156 199.524,232.989 201.5,234.5C 198.833,234.5 196.167,234.5 193.5,234.5C 188.233,233.934 183.233,232.601 178.5,230.5 Z"/></g>
<g><path style="opacity:1" fill="#c2443f" d="M 297.5,231.5 C 297.167,232.167 296.833,232.833 296.5,233.5C 296.167,233.5 295.833,233.5 295.5,233.5C 293.326,233.75 291.659,234.75 290.5,236.5C 288.883,237.038 287.216,237.371 285.5,237.5C 287.301,235.862 288.967,234.029 290.5,232C 292.81,231.503 295.143,231.337 297.5,231.5 Z"/></g>
<g><path style="opacity:0.392" fill="#e7c6c4" d="M 301.5,230.5 C 300.514,232.408 298.848,233.408 296.5,233.5C 296.833,232.833 297.167,232.167 297.5,231.5C 298.833,231.167 300.167,230.833 301.5,230.5 Z"/></g>
<g><path style="opacity:1" fill="#ba4e45" d="M 193.5,234.5 C 196.167,234.5 198.833,234.5 201.5,234.5C 204.749,236.624 208.415,237.624 212.5,237.5C 213.167,238.167 213.833,238.833 214.5,239.5C 207.051,238.95 200.051,237.284 193.5,234.5 Z"/></g>
<g><path style="opacity:0.251" fill="#ecc6c1" d="M 295.5,233.5 C 294.514,235.408 292.848,236.408 290.5,236.5C 291.659,234.75 293.326,233.75 295.5,233.5 Z"/></g>
<g><path style="opacity:1" fill="#c73b31" d="M 128.5,223.5 C 134.623,227.783 140.623,232.283 146.5,237C 148.407,238.122 150.407,238.955 152.5,239.5C 152.973,240.906 153.973,241.573 155.5,241.5C 157.849,243.341 160.515,244.674 163.5,245.5C 163.973,246.906 164.973,247.573 166.5,247.5C 166.833,247.5 167.167,247.5 167.5,247.5C 170.518,249.4 173.851,250.733 177.5,251.5C 178.609,251.557 179.609,251.89 180.5,252.5C 180.5,252.833 180.5,253.167 180.5,253.5C 175.114,253.223 169.781,252.556 164.5,251.5C 164.728,253.355 164.061,254.188 162.5,254C 162.825,251.481 162.325,248.981 161,246.5C 158.059,245.188 155.226,243.688 152.5,242C 146.506,241.934 141.506,239.767 137.5,235.5C 132.377,236.956 131.71,236.123 135.5,233C 132.714,232.6 130.048,231.767 127.5,230.5C 126.391,228.786 127.058,228.119 129.5,228.5C 129.371,226.784 129.038,225.117 128.5,223.5 Z"/></g>
<g><path style="opacity:0.949" fill="#ca7d6f" d="M 326.5,237.5 C 323.011,238.313 320.344,240.313 318.5,243.5C 317.833,243.5 317.167,243.5 316.5,243.5C 318.294,241.203 320.294,239.037 322.5,237C 324.066,236.235 325.399,236.402 326.5,237.5 Z"/></g>
<g><path style="opacity:0.675" fill="#e1aca3" d="M 152.5,239.5 C 154.027,239.427 155.027,240.094 155.5,241.5C 153.973,241.573 152.973,240.906 152.5,239.5 Z"/></g>
<g><path style="opacity:1" fill="#c0655d" d="M 217.5,240.5 C 223.678,240.107 229.678,240.94 235.5,243C 243.827,243.5 252.16,243.666 260.5,243.5C 245.88,245.469 231.547,244.469 217.5,240.5 Z"/></g>
<g><path style="opacity:1" fill="#be4c46" d="M 277.5,239.5 C 277.03,240.693 276.03,241.36 274.5,241.5C 271.86,242.095 269.193,242.428 266.5,242.5C 266.611,241.883 266.944,241.383 267.5,241C 270.793,240.174 274.126,239.674 277.5,239.5 Z"/></g>
<g><path style="opacity:1" fill="#bd3d36" d="M 212.5,237.5 C 220.966,238.616 229.3,240.116 237.5,242C 247.161,242.5 256.828,242.666 266.5,242.5C 264.735,243.461 262.735,243.795 260.5,243.5C 252.16,243.666 243.827,243.5 235.5,243C 229.678,240.94 223.678,240.107 217.5,240.5C 216.609,239.89 215.609,239.557 214.5,239.5C 213.833,238.833 213.167,238.167 212.5,237.5 Z"/></g>
<g><path style="opacity:0.784" fill="#dfa48f" d="M 335.5,241.5 C 337.027,241.427 338.027,242.094 338.5,243.5C 336.973,243.573 335.973,242.906 335.5,241.5 Z"/></g>
<g><path style="opacity:0.631" fill="#ebb5a5" d="M 341.5,244.5 C 343.404,244.738 344.738,245.738 345.5,247.5C 343.596,247.262 342.262,246.262 341.5,244.5 Z"/></g>
<g><path style="opacity:0.898" fill="#e08f78" d="M 163.5,245.5 C 165.027,245.427 166.027,246.094 166.5,247.5C 164.973,247.573 163.973,246.906 163.5,245.5 Z"/></g>
<g><path style="opacity:1" fill="#c35c51" d="M 316.5,243.5 C 315.856,246.804 313.856,248.138 310.5,247.5C 312.147,245.674 314.147,244.34 316.5,243.5 Z"/></g>
<g><path style="opacity:0.447" fill="#e8b09e" d="M 167.5,247.5 C 171.358,247.77 174.691,249.103 177.5,251.5C 173.851,250.733 170.518,249.4 167.5,247.5 Z"/></g>
<g><path style="opacity:0.988" fill="#c86857" d="M 45.5,248.5 C 47.7488,249.08 49.4154,250.413 50.5,252.5C 48.2512,251.92 46.5846,250.587 45.5,248.5 Z"/></g>
<g><path style="opacity:1" fill="#c24433" d="M 326.5,237.5 C 329.256,239.204 332.256,240.537 335.5,241.5C 335.973,242.906 336.973,243.573 338.5,243.5C 339.391,244.11 340.391,244.443 341.5,244.5C 342.262,246.262 343.596,247.262 345.5,247.5C 348.37,248.433 350.704,250.1 352.5,252.5C 349.303,252.027 346.137,251.361 343,250.5C 340.295,245.727 336.128,243.393 330.5,243.5C 330.5,242.5 330.5,241.5 330.5,240.5C 328.599,240.567 326.766,240.233 325,239.5C 322.941,241.07 320.774,242.403 318.5,243.5C 320.344,240.313 323.011,238.313 326.5,237.5 Z"/></g>
<g><path style="opacity:0.588" fill="#e4aa97" d="M 180.5,253.5 C 180.5,253.167 180.5,252.833 180.5,252.5C 183.152,252.41 185.485,253.076 187.5,254.5C 185.139,254.326 182.806,253.993 180.5,253.5 Z"/></g>
<g><path style="opacity:1" fill="#c65743" d="M 310.5,247.5 C 309.71,248.794 308.71,249.961 307.5,251C 304.446,252.527 301.446,254.027 298.5,255.5C 297.5,255.5 296.5,255.5 295.5,255.5C 300.469,252.886 305.469,250.22 310.5,247.5 Z"/></g>
<g><path style="opacity:0.518" fill="#ecb9a9" d="M 354.5,252.5 C 356.027,252.427 357.027,253.094 357.5,254.5C 355.973,254.573 354.973,253.906 354.5,252.5 Z"/></g>
<g><path style="opacity:0.937" fill="#c5786a" d="M 51.5,253.5 C 53.7488,254.08 55.4154,255.413 56.5,257.5C 54.2512,256.92 52.5846,255.587 51.5,253.5 Z"/></g>
<g><path style="opacity:0.388" fill="#e7bba9" d="M 191.5,256.5 C 191.5,256.167 191.5,255.833 191.5,255.5C 195.162,255.723 198.495,256.723 201.5,258.5C 198.123,258.041 194.789,257.374 191.5,256.5 Z"/></g>
<g><path style="opacity:0.937" fill="#d17f6b" d="M 294.5,255.5 C 292.485,256.924 290.152,257.59 287.5,257.5C 289.515,256.076 291.848,255.41 294.5,255.5 Z"/></g>
<g><path style="opacity:1" fill="#c24a3e" d="M 50.5,252.5 C 53.4067,252.575 56.0734,253.409 58.5,255C 61.5616,257.882 64.7283,260.716 68,263.5C 68.4643,264.094 68.631,264.761 68.5,265.5C 64.1477,263.327 60.1477,260.66 56.5,257.5C 55.4154,255.413 53.7488,254.08 51.5,253.5C 50.8333,253.5 50.5,253.167 50.5,252.5 Z"/></g>
<g><path style="opacity:0.953" fill="#d77f78" d="M 287.5,257.5 C 285.898,259.074 283.898,259.741 281.5,259.5C 283.102,257.926 285.102,257.259 287.5,257.5 Z"/></g>
<g><path style="opacity:1" fill="#c24d38" d="M 191.5,256.5 C 194.789,257.374 198.123,258.041 201.5,258.5C 202.167,258.5 202.833,258.5 203.5,258.5C 205.515,259.924 207.848,260.59 210.5,260.5C 213.054,261.388 215.721,261.721 218.5,261.5C 218.5,261.833 218.5,262.167 218.5,262.5C 215.934,262.344 213.434,262.678 211,263.5C 206.432,261.401 201.599,260.067 196.5,259.5C 194.64,258.675 192.974,257.675 191.5,256.5 Z"/></g>
<g><path style="opacity:0.722" fill="#e1a997" d="M 203.5,258.5 C 206.152,258.41 208.485,259.076 210.5,260.5C 207.848,260.59 205.515,259.924 203.5,258.5 Z"/></g>
<g><path style="opacity:0.412" fill="#e7bdb5" d="M 364.5,259.5 C 366.749,260.08 368.415,261.413 369.5,263.5C 367.251,262.92 365.585,261.587 364.5,259.5 Z"/></g>
<g><path style="opacity:1" fill="#c34035" d="M 294.5,255.5 C 294.833,255.5 295.167,255.5 295.5,255.5C 296.5,255.5 297.5,255.5 298.5,255.5C 298.047,256.458 297.381,257.292 296.5,258C 292.312,259.631 287.979,260.464 283.5,260.5C 283.719,261.675 283.386,262.675 282.5,263.5C 279.056,263.109 275.389,262.776 271.5,262.5C 271.5,262.167 271.5,261.833 271.5,261.5C 274.627,260.419 277.96,259.753 281.5,259.5C 283.898,259.741 285.898,259.074 287.5,257.5C 290.152,257.59 292.485,256.924 294.5,255.5 Z"/></g>
<g><path style="opacity:0.953" fill="#ce7562" d="M 218.5,262.5 C 218.5,262.167 218.5,261.833 218.5,261.5C 222.04,261.753 225.373,262.419 228.5,263.5C 225.098,263.658 221.764,263.324 218.5,262.5 Z"/></g>
<g><path style="opacity:0.993" fill="#c45c4e" d="M 271.5,261.5 C 271.5,261.833 271.5,262.167 271.5,262.5C 257.095,264.706 242.762,265.04 228.5,263.5C 242.897,263.81 257.231,263.143 271.5,261.5 Z"/></g>
<g><path style="opacity:1" fill="#c53c33" d="M 352.5,252.5 C 353.167,252.5 353.833,252.5 354.5,252.5C 354.973,253.906 355.973,254.573 357.5,254.5C 359.55,256.547 361.883,258.214 364.5,259.5C 365.585,261.587 367.251,262.92 369.5,263.5C 371.167,265.5 372.833,267.5 374.5,269.5C 374.5,270.167 374.5,270.833 374.5,271.5C 371.729,273.086 368.729,273.586 365.5,273C 364.663,271.989 364.33,270.822 364.5,269.5C 360.416,270.055 359.749,269.055 362.5,266.5C 363.962,267.471 365.295,267.138 366.5,265.5C 363.576,261.212 359.576,258.212 354.5,256.5C 353.37,255.378 352.703,254.044 352.5,252.5 Z"/></g>
<g><path style="opacity:0.996" fill="#c26352" d="M 374.5,269.5 C 377.573,271.569 379.906,274.236 381.5,277.5C 380.167,276.5 378.833,275.5 377.5,274.5C 376.833,273.167 375.833,272.167 374.5,271.5C 374.5,270.833 374.5,270.167 374.5,269.5 Z"/></g>
<g><path style="opacity:1" fill="#c35b4e" d="M 68.5,265.5 C 70.604,265.201 72.604,265.534 74.5,266.5C 76.7588,270.42 80.0922,272.42 84.5,272.5C 84.5,273.5 84.5,274.5 84.5,275.5C 78.8551,272.677 73.5218,269.344 68.5,265.5 Z"/></g>
<g><path style="opacity:0.808" fill="#d48c80" d="M 90.5,278.5 C 92.0269,278.427 93.0269,279.094 93.5,280.5C 91.9731,280.573 90.9731,279.906 90.5,278.5 Z"/></g>
<g><path style="opacity:0.929" fill="#cd7f71" d="M 381.5,277.5 C 382.906,277.973 383.573,278.973 383.5,280.5C 382.094,280.027 381.427,279.027 381.5,277.5 Z"/></g>
<g><path style="opacity:1" fill="#c34d3f" d="M 93.5,280.5 C 100.366,279.605 105.699,281.938 109.5,287.5C 103.724,285.918 98.3904,283.585 93.5,280.5 Z"/></g>
<g><path style="opacity:0.82" fill="#d89a8f" d="M 383.5,280.5 C 384.906,280.973 385.573,281.973 385.5,283.5C 384.094,283.027 383.427,282.027 383.5,280.5 Z"/></g>
<g><path style="opacity:1" fill="#c34534" d="M 377.5,274.5 C 378.833,275.5 380.167,276.5 381.5,277.5C 381.427,279.027 382.094,280.027 383.5,280.5C 383.427,282.027 384.094,283.027 385.5,283.5C 386.744,288.035 386.744,292.702 385.5,297.5C 384.094,297.973 383.427,298.973 383.5,300.5C 382.833,300.5 382.5,300.833 382.5,301.5C 382.167,301.5 381.833,301.5 381.5,301.5C 383.163,296.885 383.83,292.219 383.5,287.5C 381.951,282.953 379.951,278.62 377.5,274.5 Z"/></g>
<g><path style="opacity:0.992" fill="#c15d50" d="M 116.5,291.5 C 120.416,291.025 123.749,292.025 126.5,294.5C 122.838,294.277 119.505,293.277 116.5,291.5 Z"/></g>
<g><path style="opacity:1" fill="#c66959" d="M 127.5,295.5 C 130.491,295.166 132.824,296.166 134.5,298.5C 131.843,298.065 129.509,297.065 127.5,295.5 Z"/></g>
<g><path style="opacity:0.557" fill="#e8b4aa" d="M 385.5,297.5 C 385.573,299.027 384.906,300.027 383.5,300.5C 383.427,298.973 384.094,297.973 385.5,297.5 Z"/></g>
<g><path style="opacity:0.996" fill="#cb725d" d="M 138.5,299.5 C 141.491,299.166 143.824,300.166 145.5,302.5C 142.843,302.065 140.509,301.065 138.5,299.5 Z"/></g>
<g><path style="opacity:1" fill="#c25847" d="M 147.5,302.5 C 152.365,302.592 156.699,303.925 160.5,306.5C 155.635,306.408 151.301,305.075 147.5,302.5 Z"/></g>
<g><path style="opacity:0.045" fill="#f3ddd7" d="M 380.5,301.5 C 380.833,301.5 381.167,301.5 381.5,301.5C 381.833,301.5 382.167,301.5 382.5,301.5C 381.075,302.922 380.075,304.589 379.5,306.5C 377.178,308.664 374.511,310.331 371.5,311.5C 370.883,311.389 370.383,311.056 370,310.5C 367.273,311.798 364.44,312.798 361.5,313.5C 362.59,312.143 363.924,311.143 365.5,310.5C 365.833,310.5 366.167,310.5 366.5,310.5C 371.855,308.494 376.521,305.494 380.5,301.5 Z"/></g>
<g><path style="opacity:0.976" fill="#c87163" d="M 162.5,307.5 C 165.152,307.41 167.485,308.076 169.5,309.5C 166.848,309.59 164.515,308.924 162.5,307.5 Z"/></g>
<g><path style="opacity:1" fill="#c14638" d="M 380.5,301.5 C 376.521,305.494 371.855,308.494 366.5,310.5C 366.414,309.504 366.748,308.671 367.5,308C 369.868,307.144 372.202,306.31 374.5,305.5C 374.759,301.932 376.759,300.599 380.5,301.5 Z"/></g>
<g><path style="opacity:1" fill="#ba4a3e" d="M 170.5,309.5 C 179.445,310.355 188.112,312.355 196.5,315.5C 194.833,315.5 193.167,315.5 191.5,315.5C 184.418,313.793 177.418,311.793 170.5,309.5 Z"/></g>
<g><path style="opacity:1" fill="#c04539" d="M 365.5,310.5 C 363.924,311.143 362.59,312.143 361.5,313.5C 354.931,315.476 348.265,317.142 341.5,318.5C 337.64,318.808 333.974,319.475 330.5,320.5C 322.608,321.606 314.608,322.606 306.5,323.5C 287.167,323.5 267.833,323.5 248.5,323.5C 239.481,322.707 230.481,321.707 221.5,320.5C 230.042,320.79 238.542,320.457 247,319.5C 248.726,319.946 250.226,320.779 251.5,322C 269.176,322.833 286.843,322.666 304.5,321.5C 308.752,320.817 312.918,319.817 317,318.5C 321.138,319.497 325.304,319.664 329.5,319C 341.582,316.472 353.582,313.639 365.5,310.5 Z"/></g>
<g><path style="opacity:0.057" fill="#faf2f0" d="M 371.5,311.5 C 359.469,317.007 346.803,320.84 333.5,323C 284.062,330.07 235.062,327.903 186.5,316.5C 187.919,315.549 189.585,315.216 191.5,315.5C 193.167,315.5 194.833,315.5 196.5,315.5C 196.5,316.167 196.833,316.5 197.5,316.5C 197.611,317.117 197.944,317.617 198.5,318C 203.137,318.829 207.804,319.329 212.5,319.5C 215.57,319.368 218.57,319.701 221.5,320.5C 230.481,321.707 239.481,322.707 248.5,323.5C 267.836,326.098 287.17,326.098 306.5,323.5C 314.608,322.606 322.608,321.606 330.5,320.5C 334.489,320.884 338.155,320.217 341.5,318.5C 348.265,317.142 354.931,315.476 361.5,313.5C 364.44,312.798 367.273,311.798 370,310.5C 370.383,311.056 370.883,311.389 371.5,311.5 Z"/></g>
<g><path style="opacity:0.494" fill="#e8b9af" d="M 248.5,323.5 C 267.833,323.5 287.167,323.5 306.5,323.5C 287.17,326.098 267.836,326.098 248.5,323.5 Z"/></g>
<g><path style="opacity:0.471" fill="#e2afa4" d="M 341.5,318.5 C 338.155,320.217 334.489,320.884 330.5,320.5C 333.974,319.475 337.64,318.808 341.5,318.5 Z"/></g>
<g><path style="opacity:0.255" fill="#f2d4cc" d="M 197.5,316.5 C 201.794,317.352 206.127,318.018 210.5,318.5C 211.492,318.328 212.158,318.662 212.5,319.5C 207.804,319.329 203.137,318.829 198.5,318C 197.944,317.617 197.611,317.117 197.5,316.5 Z"/></g>
<g><path style="opacity:1" fill="#bc5441" d="M 196.5,315.5 C 201.596,315.044 206.262,316.044 210.5,318.5C 206.127,318.018 201.794,317.352 197.5,316.5C 196.833,316.5 196.5,316.167 196.5,315.5 Z"/></g>
</svg>
