<?xml version="1.0" encoding="UTF-8"?>
<!DOCTYPE svg PUBLIC "-//W3C//DTD SVG 1.1//EN" "http://www.w3.org/Graphics/SVG/1.1/DTD/svg11.dtd">
<svg xmlns="http://www.w3.org/2000/svg" version="1.1" width="415px" height="415px" style="shape-rendering:geometricPrecision; text-rendering:geometricPrecision; image-rendering:optimizeQuality; fill-rule:evenodd; clip-rule:evenodd" xmlns:xlink="http://www.w3.org/1999/xlink">
<g><path style="opacity:0.618" fill="#f6fcf6" d="M 187.5,98.5 C 188.398,99.1577 189.398,99.8243 190.5,100.5C 180.453,100.413 171.119,102.746 162.5,107.5C 161.833,107.167 161.167,106.833 160.5,106.5C 163.013,105.272 165.013,103.605 166.5,101.5C 173.222,98.4349 180.222,97.4349 187.5,98.5 Z"/></g>
<g><path style="opacity:0.996" fill="#fefefe" d="M 187.5,98.5 C 195.015,100.002 202.015,102.669 208.5,106.5C 210.819,106.992 212.819,107.992 214.5,109.5C 213.167,109.5 211.833,109.5 210.5,109.5C 210.5,110.833 210.5,112.167 210.5,113.5C 213.652,113.047 216.152,114.047 218,116.5C 219.049,115.483 220.216,115.316 221.5,116C 224.619,117.643 227.785,119.143 231,120.5C 232.404,120.491 233.57,119.991 234.5,119C 232.321,117.858 229.988,117.025 227.5,116.5C 226.702,116.043 226.369,115.376 226.5,114.5C 229.042,115.624 231.708,116.458 234.5,117C 249.833,117.333 265.167,117.667 280.5,118C 282.382,118.198 284.048,118.698 285.5,119.5C 282.597,119.085 279.597,119.585 276.5,121C 279.167,121.333 281.833,121.667 284.5,122C 286.081,124.395 288.081,124.895 290.5,123.5C 288.812,122.479 287.479,121.145 286.5,119.5C 297.095,124.261 304.928,131.928 310,142.5C 312.459,148.341 314.292,154.341 315.5,160.5C 312.069,150.643 307.235,141.31 301,132.5C 299.978,133.354 299.145,134.354 298.5,135.5C 302.888,137.883 305.222,141.55 305.5,146.5C 306.5,146.5 307.5,146.5 308.5,146.5C 308.952,150.163 309.452,153.83 310,157.5C 313.234,159.459 313.067,161.293 309.5,163C 310.527,163.513 311.527,164.013 312.5,164.5C 312.717,167.435 313.383,170.269 314.5,173C 314.342,175.149 313.508,176.983 312,178.5C 311.272,181.23 311.438,183.897 312.5,186.5C 311.349,187.731 310.183,187.731 309,186.5C 308.308,187.437 308.475,188.103 309.5,188.5C 309.5,188.833 309.5,189.167 309.5,189.5C 308.926,191.788 307.926,193.955 306.5,196C 309.561,196.895 309.728,198.729 307,201.5C 306.185,207.203 305.185,212.87 304,218.5C 302.063,218.179 300.563,219.179 299.5,221.5C 301.207,222.873 302.54,224.539 303.5,226.5C 302.069,227.78 301.402,229.447 301.5,231.5C 300.849,232.091 300.182,232.757 299.5,233.5C 298.833,231.833 298.167,230.167 297.5,228.5C 296.5,228.833 295.833,229.5 295.5,230.5C 296.645,231.891 296.645,233.224 295.5,234.5C 293.802,233.319 292.135,233.319 290.5,234.5C 291.325,235.386 292.325,235.719 293.5,235.5C 293.657,236.873 293.49,238.207 293,239.5C 290.539,238.782 288.039,238.115 285.5,237.5C 283.919,241.287 281.086,243.62 277,244.5C 275.278,244.389 275.112,243.889 276.5,243C 275.874,242.25 275.374,241.416 275,240.5C 272.841,243.094 272.341,245.428 273.5,247.5C 261.552,251.202 249.218,252.368 236.5,251C 234.942,250.79 233.609,250.29 232.5,249.5C 245.372,251.411 258.039,250.577 270.5,247C 259.82,246.893 249.153,247.393 238.5,248.5C 234.876,247.098 231.042,246.432 227,246.5C 224.39,246.533 222.223,247.2 220.5,248.5C 218.708,248.634 217.042,248.301 215.5,247.5C 216.091,246.849 216.757,246.182 217.5,245.5C 215.118,243.929 212.451,243.096 209.5,243C 208.354,242.355 207.354,241.522 206.5,240.5C 205.304,240.846 205.304,241.346 206.5,242C 205.833,242.167 205.167,242.333 204.5,242.5C 199.445,240.286 194.112,238.953 188.5,238.5C 187.167,238.667 185.833,238.833 184.5,239C 186.437,239.122 187.77,239.955 188.5,241.5C 183.951,240.537 179.617,239.204 175.5,237.5C 153.821,229.322 135.987,215.989 122,197.5C 121.91,189.665 123.076,181.998 125.5,174.5C 126.124,174.917 126.457,175.584 126.5,176.5C 124.811,183.096 123.978,189.763 124,196.5C 127.293,200.795 130.959,204.795 135,208.5C 136.059,208.37 136.892,207.87 137.5,207C 135.667,205.833 133.833,204.667 132,203.5C 129.738,199.545 127.572,195.545 125.5,191.5C 125.939,189.896 126.606,188.396 127.5,187C 127.265,186.127 126.931,185.293 126.5,184.5C 127.213,182.224 127.713,179.891 128,177.5C 130.727,174.413 131.227,170.913 129.5,167C 130.833,164 132.167,161 133.5,158C 133.355,157.228 133.022,156.561 132.5,156C 133.867,153.328 134.867,150.495 135.5,147.5C 136.167,148.167 136.833,148.833 137.5,149.5C 137.833,149.167 138.167,148.833 138.5,148.5C 134.344,142.556 135.344,137.389 141.5,133C 140.123,131.759 138.79,131.592 137.5,132.5C 136.004,136.353 134.338,140.019 132.5,143.5C 132.729,136.053 135.395,129.72 140.5,124.5C 140.167,126.5 139.833,128.5 139.5,130.5C 140.5,130.5 141.5,130.5 142.5,130.5C 142.178,126.65 143.511,123.483 146.5,121C 150.459,121.209 152.126,119.375 151.5,115.5C 152.873,115.657 154.207,115.49 155.5,115C 156.478,113.025 157.811,111.358 159.5,110C 159.167,109.5 158.833,109 158.5,108.5C 154.129,111.881 149.796,115.215 145.5,118.5C 150.997,111.006 157.997,105.339 166.5,101.5C 165.013,103.605 163.013,105.272 160.5,106.5C 161.167,106.833 161.833,107.167 162.5,107.5C 171.119,102.746 180.453,100.413 190.5,100.5C 189.398,99.8243 188.398,99.1577 187.5,98.5 Z"/></g>
<g><path style="opacity:0.793" fill="#f5fdf4" d="M 208.5,106.5 C 208.414,107.496 208.748,108.329 209.5,109C 207.831,110.669 205.831,111.502 203.5,111.5C 203.5,110.5 203.5,109.5 203.5,108.5C 200.716,106.663 197.716,104.996 194.5,103.5C 193.167,102.833 193.167,102.167 194.5,101.5C 198.865,103.099 203.031,105.099 207,107.5C 207.383,106.944 207.883,106.611 208.5,106.5 Z"/></g>
<g><path style="opacity:0.653" fill="#f6fcf6" d="M 214.5,109.5 C 218.504,111.169 222.504,112.836 226.5,114.5C 226.369,115.376 226.702,116.043 227.5,116.5C 229.988,117.025 232.321,117.858 234.5,119C 233.57,119.991 232.404,120.491 231,120.5C 227.785,119.143 224.619,117.643 221.5,116C 220.216,115.316 219.049,115.483 218,116.5C 216.152,114.047 213.652,113.047 210.5,113.5C 210.5,112.167 210.5,110.833 210.5,109.5C 211.833,109.5 213.167,109.5 214.5,109.5 Z"/></g>
<g><path style="opacity:0.805" fill="#f7fbf6" d="M 263.5,118.5 C 266.833,118.5 270.167,118.5 273.5,118.5C 273.5,119.5 273.5,120.5 273.5,121.5C 262.162,121.667 250.828,121.5 239.5,121C 239.167,120.667 238.833,120.333 238.5,120C 247.01,119.829 255.343,119.329 263.5,118.5 Z"/></g>
<g><path style="opacity:0.757" fill="#f6fcf5" d="M 285.5,119.5 C 285.833,119.5 286.167,119.5 286.5,119.5C 287.479,121.145 288.812,122.479 290.5,123.5C 288.081,124.895 286.081,124.395 284.5,122C 281.833,121.667 279.167,121.333 276.5,121C 279.597,119.585 282.597,119.085 285.5,119.5 Z"/></g>
<g><path style="opacity:0.565" fill="#f8fdf6" d="M 140.5,124.5 C 141.443,121.891 143.11,119.891 145.5,118.5C 149.796,115.215 154.129,111.881 158.5,108.5C 158.833,109 159.167,109.5 159.5,110C 157.811,111.358 156.478,113.025 155.5,115C 154.207,115.49 152.873,115.657 151.5,115.5C 152.126,119.375 150.459,121.209 146.5,121C 143.511,123.483 142.178,126.65 142.5,130.5C 141.5,130.5 140.5,130.5 139.5,130.5C 139.833,128.5 140.167,126.5 140.5,124.5 Z"/></g>
<g><path style="opacity:0.824" fill="#f5fdee" d="M 293.5,125.5 C 296.016,126.6 297.016,128.267 296.5,130.5C 294.244,129.579 293.244,127.912 293.5,125.5 Z"/></g>
<g><path style="opacity:0.751" fill="#f9fcf7" d="M 125.5,174.5 C 127.471,163.965 129.804,153.632 132.5,143.5C 134.338,140.019 136.004,136.353 137.5,132.5C 138.79,131.592 140.123,131.759 141.5,133C 135.344,137.389 134.344,142.556 138.5,148.5C 138.167,148.833 137.833,149.167 137.5,149.5C 136.833,148.833 136.167,148.167 135.5,147.5C 134.867,150.495 133.867,153.328 132.5,156C 133.022,156.561 133.355,157.228 133.5,158C 132.167,161 130.833,164 129.5,167C 131.227,170.913 130.727,174.413 128,177.5C 127.713,179.891 127.213,182.224 126.5,184.5C 126.931,185.293 127.265,186.127 127.5,187C 126.606,188.396 125.939,189.896 125.5,191.5C 127.572,195.545 129.738,199.545 132,203.5C 133.833,204.667 135.667,205.833 137.5,207C 136.892,207.87 136.059,208.37 135,208.5C 130.959,204.795 127.293,200.795 124,196.5C 123.978,189.763 124.811,183.096 126.5,176.5C 126.457,175.584 126.124,174.917 125.5,174.5 Z"/></g>
<g><path style="opacity:0.579" fill="#f7fdf5" d="M 315.5,160.5 C 315.5,160.833 315.5,161.167 315.5,161.5C 314.9,162.9 313.9,163.9 312.5,164.5C 311.527,164.013 310.527,163.513 309.5,163C 313.067,161.293 313.234,159.459 310,157.5C 309.452,153.83 308.952,150.163 308.5,146.5C 307.5,146.5 306.5,146.5 305.5,146.5C 305.222,141.55 302.888,137.883 298.5,135.5C 299.145,134.354 299.978,133.354 301,132.5C 307.235,141.31 312.069,150.643 315.5,160.5 Z"/></g>
<g><path style="opacity:0.986" fill="#fefefe" d="M 107.5,198.5 C 105.682,196.922 104.682,197.422 104.5,200C 105.267,202.072 105.601,204.072 105.5,206C 106.01,207.826 106.844,207.993 108,206.5C 108.309,207.766 108.809,208.933 109.5,210C 109.167,210.333 108.833,210.667 108.5,211C 110.633,212.402 112.3,214.235 113.5,216.5C 115.854,217.998 118.187,219.332 120.5,220.5C 121.219,223.073 122.219,225.573 123.5,228C 125.259,228.798 126.926,228.631 128.5,227.5C 124.841,223.009 120.675,219.009 116,215.5C 113.333,211.5 110.667,207.5 108,203.5C 107.51,202.207 107.343,200.873 107.5,199.5C 116.013,213.018 126.679,224.685 139.5,234.5C 136.339,233.53 133.506,231.863 131,229.5C 129.812,230.563 129.312,231.897 129.5,233.5C 132.564,233.144 135.231,233.977 137.5,236C 136.134,238.438 136.634,238.938 139,237.5C 140.331,238.996 141.831,240.329 143.5,241.5C 142.397,241.998 141.397,242.331 140.5,242.5C 145.781,243.818 150.781,245.651 155.5,248C 157.5,249 159.5,250 161.5,251C 162.833,251.667 162.833,252.333 161.5,253C 168.031,254.927 174.698,256.261 181.5,257C 177.988,255.216 174.321,253.716 170.5,252.5C 169.702,252.043 169.369,251.376 169.5,250.5C 183.149,254.943 196.816,258.943 210.5,262.5C 209.883,262.611 209.383,262.944 209,263.5C 200.893,261.707 192.726,259.707 184.5,257.5C 182.971,257.529 181.804,258.196 181,259.5C 180.568,260.6 181.068,261.267 182.5,261.5C 186.541,260.227 190.541,260.393 194.5,262C 193.5,262.333 192.5,262.667 191.5,263C 201.23,263.733 210.897,264.9 220.5,266.5C 220.5,265.5 220.5,264.5 220.5,263.5C 237.528,264.814 254.528,264.481 271.5,262.5C 275.805,260.254 280.471,258.92 285.5,258.5C 284.665,259.943 283.332,260.943 281.5,261.5C 284.021,262.966 286.688,263.466 289.5,263C 288.328,262.581 287.328,261.915 286.5,261C 288.235,260.349 289.902,260.515 291.5,261.5C 297.757,257.707 304.424,253.874 311.5,250C 312.5,249 313.5,248 314.5,247C 314,246.833 313.5,246.667 313,246.5C 310.469,248.545 307.635,249.879 304.5,250.5C 309.359,246.37 314.359,242.204 319.5,238C 320.833,237.333 322.167,237.333 323.5,238C 326.633,238.86 329.3,240.36 331.5,242.5C 329.703,242.935 327.703,242.935 325.5,242.5C 325.5,243.5 325.5,244.5 325.5,245.5C 328.587,244.314 331.253,245.147 333.5,248C 336.03,248.379 338.363,249.213 340.5,250.5C 342.304,252.467 344.304,254.301 346.5,256C 350.858,257.714 354.858,260.047 358.5,263C 360.394,264.079 360.727,265.413 359.5,267C 363,268.5 365.5,271 367,274.5C 367.414,274.043 367.914,273.709 368.5,273.5C 370.336,274.919 372.336,276.086 374.5,277C 376.004,278.491 376.837,280.324 377,282.5C 377.383,281.944 377.883,281.611 378.5,281.5C 380.018,285.372 381.684,289.205 383.5,293C 383.32,295.241 382.487,295.741 381,294.5C 380.167,295.333 379.333,296.167 378.5,297C 384.063,297.356 384.729,299.189 380.5,302.5C 378.482,301.187 377.315,301.853 377,304.5C 375.667,301.833 374.333,301.833 373,304.5C 372.82,306.488 372.986,308.488 373.5,310.5C 371.723,310.786 370.056,311.453 368.5,312.5C 365.858,311.309 363.858,312.143 362.5,315C 360.423,315.192 358.423,315.692 356.5,316.5C 357.811,317.258 358.311,318.258 358,319.5C 355.726,318.189 353.56,318.189 351.5,319.5C 349.173,319.247 347.173,319.914 345.5,321.5C 346.325,322.386 347.325,322.719 348.5,322.5C 348.833,322.5 349.167,322.5 349.5,322.5C 334.016,327.441 318.016,330.108 301.5,330.5C 302.953,329.175 302.619,328.342 300.5,328C 293.167,327.833 285.833,327.667 278.5,327.5C 267.107,327.85 255.774,328.017 244.5,328C 246.502,329.019 248.502,329.852 250.5,330.5C 246.629,330.815 242.962,330.482 239.5,329.5C 240.167,329.5 240.5,329.167 240.5,328.5C 238.012,326.612 235.012,325.945 231.5,326.5C 229.509,324.939 227.176,323.939 224.5,323.5C 221.203,324.496 217.869,324.663 214.5,324C 214.833,323.667 215.167,323.333 215.5,323C 212.557,322.71 210.057,321.544 208,319.5C 207.5,319.667 207,319.833 206.5,320C 207.252,320.671 207.586,321.504 207.5,322.5C 200.419,320.941 193.252,319.607 186,318.5C 184.5,318.667 183,318.833 181.5,319C 184.424,319.988 187.424,320.654 190.5,321C 191.056,321.383 191.389,321.883 191.5,322.5C 176.044,319.75 161.044,315.75 146.5,310.5C 150.527,310.719 151.194,309.552 148.5,307C 144.878,306.209 141.378,305.042 138,303.5C 136.893,303.585 135.893,303.919 135,304.5C 133.706,303.146 133.54,301.812 134.5,300.5C 130.828,298.996 126.995,297.996 123,297.5C 120.88,299.068 119.38,298.568 118.5,296C 115.833,295.333 113.167,294.667 110.5,294C 111.821,292.455 111.488,291.289 109.5,290.5C 108.3,291.531 106.966,292.365 105.5,293C 111.835,296.669 118.502,299.502 125.5,301.5C 127.873,298.812 129.873,298.979 131.5,302C 130.5,302.333 129.5,302.667 128.5,303C 129.942,303.377 130.942,304.21 131.5,305.5C 111.193,298.407 91.8597,289.407 73.5,278.5C 76.7096,279.172 79.8763,280.172 83,281.5C 88.0596,284.871 93.3929,287.871 99,290.5C 99.3289,288.386 98.4956,286.72 96.5,285.5C 95.109,286.645 93.7757,286.645 92.5,285.5C 93.1667,284.833 93.8333,284.167 94.5,283.5C 92.7408,282.246 91.2408,282.579 90,284.5C 88.9535,281.501 86.7868,280.001 83.5,280C 82.4567,278.024 81.1233,277.524 79.5,278.5C 78.2888,277.726 78.2888,276.893 79.5,276C 73.7162,273.099 67.7162,270.599 61.5,268.5C 61.5858,267.504 61.2524,266.671 60.5,266C 58.2279,265.059 56.2279,263.726 54.5,262C 55.4581,260.853 55.1247,259.853 53.5,259C 51.0734,257.409 48.4067,256.575 45.5,256.5C 45.5,257.5 45.5,258.5 45.5,259.5C 43.0905,258.299 41.0905,256.633 39.5,254.5C 41.3904,254.297 42.8904,254.963 44,256.5C 44.5,255.5 45,254.5 45.5,253.5C 42.3055,252.171 41.9722,250.505 44.5,248.5C 43.9984,247.479 43.3317,247.312 42.5,248C 40.6022,249.417 38.9355,250.917 37.5,252.5C 32.0753,248.411 27.7419,243.411 24.5,237.5C 26.3284,238.794 28.3284,239.794 30.5,240.5C 30.0148,236.02 27.6814,233.02 23.5,231.5C 23.3343,227.154 23.501,222.821 24,218.5C 24.3333,219.167 24.6667,219.833 25,220.5C 26.6366,217.561 28.1366,213.895 29.5,209.5C 28.5,209.5 27.5,209.5 26.5,209.5C 28.9181,206.453 31.9181,204.12 35.5,202.5C 35.2504,203.922 34.417,204.922 33,205.5C 32.3333,206.833 32.3333,208.167 33,209.5C 34.7863,207.901 36.953,207.067 39.5,207C 38.8333,206.333 38.1667,205.667 37.5,205C 39.1341,204.506 40.8008,204.34 42.5,204.5C 42.5,203.5 42.5,202.5 42.5,201.5C 46.5,200.833 50.5,200.167 54.5,199.5C 54.5,198.5 54.5,197.5 54.5,196.5C 50.4653,198.591 46.1319,199.591 41.5,199.5C 55.3146,192.241 70.148,189.241 86,190.5C 92.577,190.395 99.077,190.895 105.5,192C 106.167,192.667 106.833,193.333 107.5,194C 107.034,195.299 107.034,196.799 107.5,198.5 Z"/></g>
<g><path style="opacity:0.821" fill="#f0fdf2" d="M 309.5,188.5 C 310.5,188.5 311.5,188.5 312.5,188.5C 312.949,190.977 312.283,192.977 310.5,194.5C 309.548,192.955 309.215,191.288 309.5,189.5C 309.5,189.167 309.5,188.833 309.5,188.5 Z"/></g>
<g><path style="opacity:0.125" fill="#f9fcfa" d="M 315.5,161.5 C 317.291,167.037 317.791,172.704 317,178.5C 313.004,196.479 309.004,214.479 305,232.5C 301.011,236.758 296.177,239.925 290.5,242C 285.074,244.606 279.408,246.439 273.5,247.5C 272.341,245.428 272.841,243.094 275,240.5C 275.374,241.416 275.874,242.25 276.5,243C 275.112,243.889 275.278,244.389 277,244.5C 281.086,243.62 283.919,241.287 285.5,237.5C 288.039,238.115 290.539,238.782 293,239.5C 293.49,238.207 293.657,236.873 293.5,235.5C 292.325,235.719 291.325,235.386 290.5,234.5C 292.135,233.319 293.802,233.319 295.5,234.5C 296.645,233.224 296.645,231.891 295.5,230.5C 295.833,229.5 296.5,228.833 297.5,228.5C 298.167,230.167 298.833,231.833 299.5,233.5C 300.182,232.757 300.849,232.091 301.5,231.5C 302.462,233.986 303.295,233.986 304,231.5C 304.78,229.613 304.613,227.946 303.5,226.5C 302.54,224.539 301.207,222.873 299.5,221.5C 300.563,219.179 302.063,218.179 304,218.5C 305.185,212.87 306.185,207.203 307,201.5C 309.728,198.729 309.561,196.895 306.5,196C 307.926,193.955 308.926,191.788 309.5,189.5C 309.215,191.288 309.548,192.955 310.5,194.5C 312.283,192.977 312.949,190.977 312.5,188.5C 311.5,188.5 310.5,188.5 309.5,188.5C 308.475,188.103 308.308,187.437 309,186.5C 310.183,187.731 311.349,187.731 312.5,186.5C 311.438,183.897 311.272,181.23 312,178.5C 313.508,176.983 314.342,175.149 314.5,173C 313.383,170.269 312.717,167.435 312.5,164.5C 313.9,163.9 314.9,162.9 315.5,161.5 Z"/></g>
<g><path style="opacity:0.731" fill="#f7fdf5" d="M 69.5,192.5 C 73.8691,191.923 77.8691,192.757 81.5,195C 73.7337,194.608 66.067,194.942 58.5,196C 62.3125,195.077 65.9792,193.91 69.5,192.5 Z"/></g>
<g><path style="opacity:0.675" fill="#f7fdf7" d="M 35.5,202.5 C 37.2163,200.975 39.2163,199.975 41.5,199.5C 46.1319,199.591 50.4653,198.591 54.5,196.5C 54.5,197.5 54.5,198.5 54.5,199.5C 50.5,200.167 46.5,200.833 42.5,201.5C 42.5,202.5 42.5,203.5 42.5,204.5C 40.8008,204.34 39.1341,204.506 37.5,205C 38.1667,205.667 38.8333,206.333 39.5,207C 36.953,207.067 34.7863,207.901 33,209.5C 32.3333,208.167 32.3333,206.833 33,205.5C 34.417,204.922 35.2504,203.922 35.5,202.5 Z"/></g>
<g><path style="opacity:0.675" fill="#f5fbf5" d="M 107.5,198.5 C 107.5,198.833 107.5,199.167 107.5,199.5C 107.343,200.873 107.51,202.207 108,203.5C 110.667,207.5 113.333,211.5 116,215.5C 120.675,219.009 124.841,223.009 128.5,227.5C 126.926,228.631 125.259,228.798 123.5,228C 122.219,225.573 121.219,223.073 120.5,220.5C 118.187,219.332 115.854,217.998 113.5,216.5C 112.3,214.235 110.633,212.402 108.5,211C 108.833,210.667 109.167,210.333 109.5,210C 108.809,208.933 108.309,207.766 108,206.5C 106.844,207.993 106.01,207.826 105.5,206C 105.601,204.072 105.267,202.072 104.5,200C 104.682,197.422 105.682,196.922 107.5,198.5 Z"/></g>
<g><path style="opacity:0.705" fill="#f5fdf6" d="M 144.5,209.5 C 147.017,211.077 147.017,212.91 144.5,215C 146.056,216.599 147.723,218.099 149.5,219.5C 150.506,220.396 150.506,221.062 149.5,221.5C 145.131,218.643 141.131,215.31 137.5,211.5C 137.833,211.167 138.167,210.833 138.5,210.5C 139.833,211.5 141.167,212.5 142.5,213.5C 143.362,212.234 144.029,210.901 144.5,209.5 Z"/></g>
<g><path style="opacity:0.134" fill="#fdfdfc" d="M 24.5,211.5 C 22.4917,215.205 21.4917,219.205 21.5,223.5C 21.1387,228.248 22.4721,232.415 25.5,236C 24.944,236.383 24.6107,236.883 24.5,237.5C 19.0976,230.042 18.2642,222.042 22,213.5C 22.7083,212.619 23.5416,211.953 24.5,211.5 Z"/></g>
<g><path style="opacity:0.996" fill="#f8fdf6" d="M 153.5,222.5 C 155.364,221.207 157.364,221.207 159.5,222.5C 160.052,224.003 160.052,225.669 159.5,227.5C 161.346,227.222 162.68,227.889 163.5,229.5C 162.998,230.521 162.332,230.688 161.5,230C 158.274,227.936 155.608,225.436 153.5,222.5 Z"/></g>
<g><path style="opacity:0.459" fill="#f3fdf0" d="M 303.5,226.5 C 304.613,227.946 304.78,229.613 304,231.5C 303.295,233.986 302.462,233.986 301.5,231.5C 301.402,229.447 302.069,227.78 303.5,226.5 Z"/></g>
<g><path style="opacity:0.77" fill="#f7fdf6" d="M 175.5,237.5 C 173.637,235.508 171.304,234.008 168.5,233C 170.101,232.727 171.601,232.227 173,231.5C 176.591,233.378 180.091,235.378 183.5,237.5C 181.412,238.489 179.412,238.156 177.5,236.5C 176.817,236.863 176.15,237.196 175.5,237.5 Z"/></g>
<g><path style="opacity:0.634" fill="#f6fdf5" d="M 26.5,209.5 C 27.5,209.5 28.5,209.5 29.5,209.5C 28.1366,213.895 26.6366,217.561 25,220.5C 24.6667,219.833 24.3333,219.167 24,218.5C 23.501,222.821 23.3343,227.154 23.5,231.5C 27.6814,233.02 30.0148,236.02 30.5,240.5C 28.3284,239.794 26.3284,238.794 24.5,237.5C 24.6107,236.883 24.944,236.383 25.5,236C 22.4721,232.415 21.1387,228.248 21.5,223.5C 21.4917,219.205 22.4917,215.205 24.5,211.5C 24.8333,210.5 25.5,209.833 26.5,209.5 Z"/></g>
<g><path style="opacity:0.081" fill="#f8fcf8" d="M 139.5,234.5 C 149.38,240.019 159.38,245.352 169.5,250.5C 169.369,251.376 169.702,252.043 170.5,252.5C 174.321,253.716 177.988,255.216 181.5,257C 174.698,256.261 168.031,254.927 161.5,253C 162.833,252.333 162.833,251.667 161.5,251C 159.5,250 157.5,249 155.5,248C 150.781,245.651 145.781,243.818 140.5,242.5C 141.397,242.331 142.397,241.998 143.5,241.5C 141.831,240.329 140.331,238.996 139,237.5C 136.634,238.938 136.134,238.438 137.5,236C 135.231,233.977 132.564,233.144 129.5,233.5C 129.312,231.897 129.812,230.563 131,229.5C 133.506,231.863 136.339,233.53 139.5,234.5 Z"/></g>
<g><path style="opacity:0.218" fill="#f8fcf9" d="M 215.5,247.5 C 206.294,246.423 197.294,244.423 188.5,241.5C 187.77,239.955 186.437,239.122 184.5,239C 185.833,238.833 187.167,238.667 188.5,238.5C 194.112,238.953 199.445,240.286 204.5,242.5C 205.167,242.333 205.833,242.167 206.5,242C 205.304,241.346 205.304,240.846 206.5,240.5C 207.354,241.522 208.354,242.355 209.5,243C 212.451,243.096 215.118,243.929 217.5,245.5C 216.757,246.182 216.091,246.849 215.5,247.5 Z"/></g>
<g><path style="opacity:0.932" fill="#f2fdf4" d="M 232.5,249.5 C 228.4,249.763 224.4,249.43 220.5,248.5C 222.223,247.2 224.39,246.533 227,246.5C 231.042,246.432 234.876,247.098 238.5,248.5C 249.153,247.393 259.82,246.893 270.5,247C 258.039,250.577 245.372,251.411 232.5,249.5 Z"/></g>
<g><path style="opacity:1" fill="#f8fdf6" d="M 39.5,254.5 C 38.5,254.167 37.8333,253.5 37.5,252.5C 38.9355,250.917 40.6022,249.417 42.5,248C 43.3317,247.312 43.9984,247.479 44.5,248.5C 41.9722,250.505 42.3055,252.171 45.5,253.5C 45,254.5 44.5,255.5 44,256.5C 42.8904,254.963 41.3904,254.297 39.5,254.5 Z"/></g>
<g><path style="opacity:0.101" fill="#fafdfa" d="M 331.5,242.5 C 344.935,248.084 357.269,255.584 368.5,265C 377.015,271.889 383.181,280.389 387,290.5C 388.386,297.898 386.22,304.065 380.5,309C 371.255,315.918 360.922,320.418 349.5,322.5C 349.167,322.5 348.833,322.5 348.5,322.5C 350.148,321.073 352.148,320.24 354.5,320C 353.552,319.517 352.552,319.351 351.5,319.5C 353.56,318.189 355.726,318.189 358,319.5C 358.311,318.258 357.811,317.258 356.5,316.5C 358.423,315.692 360.423,315.192 362.5,315C 363.858,312.143 365.858,311.309 368.5,312.5C 370.056,311.453 371.723,310.786 373.5,310.5C 372.986,308.488 372.82,306.488 373,304.5C 374.333,301.833 375.667,301.833 377,304.5C 377.315,301.853 378.482,301.187 380.5,302.5C 384.729,299.189 384.063,297.356 378.5,297C 379.333,296.167 380.167,295.333 381,294.5C 382.487,295.741 383.32,295.241 383.5,293C 381.684,289.205 380.018,285.372 378.5,281.5C 378.509,279.692 378.009,278.025 377,276.5C 367.979,266.645 356.812,257.812 343.5,250C 342.251,249.26 341.251,249.427 340.5,250.5C 338.363,249.213 336.03,248.379 333.5,248C 331.253,245.147 328.587,244.314 325.5,245.5C 325.5,244.5 325.5,243.5 325.5,242.5C 327.703,242.935 329.703,242.935 331.5,242.5 Z"/></g>
<g><path style="opacity:0.111" fill="#f9fcf9" d="M 285.5,258.5 C 291.736,255.686 298.069,253.019 304.5,250.5C 307.635,249.879 310.469,248.545 313,246.5C 313.5,246.667 314,246.833 314.5,247C 313.5,248 312.5,249 311.5,250C 304.424,253.874 297.757,257.707 291.5,261.5C 289.902,260.515 288.235,260.349 286.5,261C 287.328,261.915 288.328,262.581 289.5,263C 286.688,263.466 284.021,262.966 281.5,261.5C 283.332,260.943 284.665,259.943 285.5,258.5 Z"/></g>
<g><path style="opacity:0.516" fill="#f5fdf6" d="M 61.5,268.5 C 56.1667,265.5 50.8333,262.5 45.5,259.5C 45.5,258.5 45.5,257.5 45.5,256.5C 48.4067,256.575 51.0734,257.409 53.5,259C 55.1247,259.853 55.4581,260.853 54.5,262C 56.2279,263.726 58.2279,265.059 60.5,266C 61.2524,266.671 61.5858,267.504 61.5,268.5 Z"/></g>
<g><path style="opacity:0.83" fill="#f7fcf7" d="M 210.5,262.5 C 213.939,262.253 217.272,262.586 220.5,263.5C 220.5,264.5 220.5,265.5 220.5,266.5C 210.897,264.9 201.23,263.733 191.5,263C 192.5,262.667 193.5,262.333 194.5,262C 190.541,260.393 186.541,260.227 182.5,261.5C 181.068,261.267 180.568,260.6 181,259.5C 181.804,258.196 182.971,257.529 184.5,257.5C 192.726,259.707 200.893,261.707 209,263.5C 209.383,262.944 209.883,262.611 210.5,262.5 Z"/></g>
<g><path style="opacity:0.042" fill="#fbfcfb" d="M 45.5,259.5 C 50.8333,262.5 56.1667,265.5 61.5,268.5C 65.8694,271.357 69.8694,274.69 73.5,278.5C 63.4372,273.143 54.1039,266.81 45.5,259.5 Z"/></g>
<g><path style="opacity:0.907" fill="#f5fcf4" d="M 271.5,262.5 C 274.247,262.187 276.914,262.52 279.5,263.5C 274.275,265.617 268.941,266.284 263.5,265.5C 266.184,264.247 268.85,263.247 271.5,262.5 Z"/></g>
<g><path style="opacity:1" fill="#f7fcf7" d="M 378.5,281.5 C 377.883,281.611 377.383,281.944 377,282.5C 376.837,280.324 376.004,278.491 374.5,277C 372.336,276.086 370.336,274.919 368.5,273.5C 367.914,273.709 367.414,274.043 367,274.5C 365.5,271 363,268.5 359.5,267C 360.727,265.413 360.394,264.079 358.5,263C 354.858,260.047 350.858,257.714 346.5,256C 344.304,254.301 342.304,252.467 340.5,250.5C 341.251,249.427 342.251,249.26 343.5,250C 356.812,257.812 367.979,266.645 377,276.5C 378.009,278.025 378.509,279.692 378.5,281.5 Z"/></g>
<g><path style="opacity:1" fill="#f4fef4" d="M 249.5,266.5 C 251.924,266.192 254.257,266.526 256.5,267.5C 254.839,270.092 252.672,270.759 250,269.5C 249.517,268.552 249.351,267.552 249.5,266.5 Z"/></g>
<g><path style="opacity:0.505" fill="#f6fdf6" d="M 61.5,268.5 C 67.7162,270.599 73.7162,273.099 79.5,276C 78.2888,276.893 78.2888,277.726 79.5,278.5C 81.1233,277.524 82.4567,278.024 83.5,280C 86.7868,280.001 88.9535,281.501 90,284.5C 91.2408,282.579 92.7408,282.246 94.5,283.5C 93.8333,284.167 93.1667,284.833 92.5,285.5C 93.7757,286.645 95.109,286.645 96.5,285.5C 98.4956,286.72 99.3289,288.386 99,290.5C 93.3929,287.871 88.0596,284.871 83,281.5C 79.8763,280.172 76.7096,279.172 73.5,278.5C 69.8694,274.69 65.8694,271.357 61.5,268.5 Z"/></g>
<g><path style="opacity:0.168" fill="#f7fdf6" d="M 146.5,310.5 C 141.206,309.685 136.206,308.019 131.5,305.5C 130.942,304.21 129.942,303.377 128.5,303C 129.5,302.667 130.5,302.333 131.5,302C 129.873,298.979 127.873,298.812 125.5,301.5C 118.502,299.502 111.835,296.669 105.5,293C 106.966,292.365 108.3,291.531 109.5,290.5C 111.488,291.289 111.821,292.455 110.5,294C 113.167,294.667 115.833,295.333 118.5,296C 119.38,298.568 120.88,299.068 123,297.5C 126.995,297.996 130.828,298.996 134.5,300.5C 133.54,301.812 133.706,303.146 135,304.5C 135.893,303.919 136.893,303.585 138,303.5C 141.378,305.042 144.878,306.209 148.5,307C 151.194,309.552 150.527,310.719 146.5,310.5 Z"/></g>
<g><path style="opacity:0.697" fill="#f3fef4" d="M 151.5,311.5 C 155.444,309.924 159.11,310.591 162.5,313.5C 162.167,313.833 161.833,314.167 161.5,314.5C 158.313,312.996 154.979,311.996 151.5,311.5 Z"/></g>
<g><path style="opacity:0.797" fill="#f0fef1" d="M 165.5,313.5 C 170.133,313.822 174.466,315.155 178.5,317.5C 178,317.833 177.5,318.167 177,318.5C 173.999,317.082 170.832,316.249 167.5,316C 166.244,315.583 165.577,314.75 165.5,313.5 Z"/></g>
<g><path style="opacity:0.863" fill="#f4fdf4" d="M 207.5,322.5 C 212.615,323.6 212.615,324.267 207.5,324.5C 202.506,323.723 197.506,323.056 192.5,322.5C 192.167,322.5 191.833,322.5 191.5,322.5C 191.389,321.883 191.056,321.383 190.5,321C 187.424,320.654 184.424,319.988 181.5,319C 183,318.833 184.5,318.667 186,318.5C 193.252,319.607 200.419,320.941 207.5,322.5 Z"/></g>
<g><path style="opacity:0.636" fill="#f2fef3" d="M 351.5,319.5 C 352.552,319.351 353.552,319.517 354.5,320C 352.148,320.24 350.148,321.073 348.5,322.5C 347.325,322.719 346.325,322.386 345.5,321.5C 347.173,319.914 349.173,319.247 351.5,319.5 Z"/></g>
<g><path style="opacity:0.702" fill="#f4fef5" d="M 322.5,320.5 C 325.268,321.906 328.101,323.239 331,324.5C 335.022,322.726 339.188,322.226 343.5,323C 336.932,325.353 330.266,326.187 323.5,325.5C 323.371,323.784 323.038,322.117 322.5,320.5 Z"/></g>
<g><path style="opacity:0.386" fill="#f7fcf9" d="M 231.5,326.5 C 230.448,326.351 229.448,326.517 228.5,327C 232.44,328.015 236.44,328.515 240.5,328.5C 240.5,329.167 240.167,329.5 239.5,329.5C 223.466,328.77 207.799,326.437 192.5,322.5C 197.506,323.056 202.506,323.723 207.5,324.5C 212.615,324.267 212.615,323.6 207.5,322.5C 207.586,321.504 207.252,320.671 206.5,320C 207,319.833 207.5,319.667 208,319.5C 210.057,321.544 212.557,322.71 215.5,323C 215.167,323.333 214.833,323.667 214.5,324C 217.869,324.663 221.203,324.496 224.5,323.5C 227.176,323.939 229.509,324.939 231.5,326.5 Z"/></g>
<g><path style="opacity:0.639" fill="#f0fef0" d="M 231.5,326.5 C 235.012,325.945 238.012,326.612 240.5,328.5C 236.44,328.515 232.44,328.015 228.5,327C 229.448,326.517 230.448,326.351 231.5,326.5 Z"/></g>
<g><path style="opacity:0.378" fill="#f3fef3" d="M 317.5,325.5 C 319.429,325.231 321.095,325.731 322.5,327C 318.198,328.535 313.865,328.702 309.5,327.5C 312.306,326.832 314.972,326.166 317.5,325.5 Z"/></g>
<g><path style="opacity:1" fill="#f4fdf6" d="M 301.5,330.5 C 301.167,330.5 300.833,330.5 300.5,330.5C 298.691,329.709 296.691,329.709 294.5,330.5C 294.611,329.883 294.944,329.383 295.5,329C 283.167,328.333 270.833,328.333 258.5,329C 259.416,329.278 260.082,329.778 260.5,330.5C 257.304,329.888 254.304,329.888 251.5,330.5C 251.167,330.5 250.833,330.5 250.5,330.5C 248.502,329.852 246.502,329.019 244.5,328C 255.774,328.017 267.107,327.85 278.5,327.5C 285.833,327.667 293.167,327.833 300.5,328C 302.619,328.342 302.953,329.175 301.5,330.5 Z"/></g>
<g><path style="opacity:0.382" fill="#ebfeed" d="M 294.5,330.5 C 283.167,330.5 271.833,330.5 260.5,330.5C 260.082,329.778 259.416,329.278 258.5,329C 270.833,328.333 283.167,328.333 295.5,329C 294.944,329.383 294.611,329.883 294.5,330.5 Z"/></g>
<g><path style="opacity:0.042" fill="#f9faf9" d="M 260.5,330.5 C 271.833,330.5 283.167,330.5 294.5,330.5C 296.691,329.709 298.691,329.709 300.5,330.5C 284.167,331.833 267.833,331.833 251.5,330.5C 254.304,329.888 257.304,329.888 260.5,330.5 Z"/></g>
</svg>
