<?xml version="1.0" encoding="UTF-8"?>
<!DOCTYPE svg PUBLIC "-//W3C//DTD SVG 1.1//EN" "http://www.w3.org/Graphics/SVG/1.1/DTD/svg11.dtd">
<svg xmlns="http://www.w3.org/2000/svg" version="1.1" width="415px" height="269px" style="shape-rendering:geometricPrecision; text-rendering:geometricPrecision; image-rendering:optimizeQuality; fill-rule:evenodd; clip-rule:evenodd" xmlns:xlink="http://www.w3.org/1999/xlink">
<g><path style="opacity:0.952" fill="#fefefe" d="M 179.5,23.5 C 184.587,23.8219 189.587,24.6552 194.5,26C 207.612,32.2237 220.945,37.8904 234.5,43C 251.544,43.0731 268.544,43.7397 285.5,45C 299.621,51.1245 308.788,61.6245 313,76.5C 315.028,83.8829 316.528,91.3829 317.5,99C 313.85,119.918 309.184,140.584 303.5,161C 278.049,176.464 250.716,181.131 221.5,175C 204.926,172.032 188.593,168.032 172.5,163C 152.153,154.253 135.32,141.086 122,123.5C 121.833,121.833 121.667,120.167 121.5,118.5C 125.724,99.2137 129.891,79.8803 134,60.5C 141.46,47.0429 151.626,36.2096 164.5,28C 169.482,26.0104 174.482,24.5104 179.5,23.5 Z"/></g>
<g><path style="opacity:0.871" fill="#f7fdf6" d="M 151.5,41.5 C 160.73,30.055 172.73,24.8884 187.5,26C 194.169,27.7978 200.836,30.4645 207.5,34C 208.641,34.7412 208.641,35.5745 207.5,36.5C 206.311,37.4287 204.978,37.762 203.5,37.5C 203.5,36.5 203.5,35.5 203.5,34.5C 199.04,31.8397 194.206,29.8397 189,28.5C 186.748,29.9619 185.248,29.2952 184.5,26.5C 172.698,27.3414 163.032,32.1747 155.5,41C 154.207,41.49 152.873,41.6567 151.5,41.5 Z"/></g>
<g><path style="opacity:0.857" fill="#f6fcf6" d="M 209.5,35.5 C 217.57,39.3568 225.904,42.5235 234.5,45C 233.57,45.9907 232.404,46.4907 231,46.5C 227.091,45.1367 223.258,43.47 219.5,41.5C 217.877,42.4756 216.543,41.9756 215.5,40C 212.157,40.0595 210.157,38.5595 209.5,35.5 Z"/></g>
<g><path style="opacity:0.998" fill="#f7fdf8" d="M 151.5,41.5 C 151.643,45.978 149.643,47.6447 145.5,46.5C 147.31,44.4689 149.31,42.8022 151.5,41.5 Z"/></g>
<g><path style="opacity:0.876" fill="#f8faf7" d="M 235.5,46.5 C 248.311,45.6989 261.311,45.6989 274.5,46.5C 261.264,47.698 248.264,47.698 235.5,46.5 Z"/></g>
<g><path style="opacity:0.987" fill="#f4fdf4" d="M 286.5,48.5 C 288.346,48.2222 289.68,48.8888 290.5,50.5C 288.167,51.9415 286.834,51.2748 286.5,48.5 Z"/></g>
<g><path style="opacity:0.796" fill="#f5fdf0" d="M 293.5,52.5 C 295.384,52.7118 296.717,53.7118 297.5,55.5C 295.219,56.2617 293.886,55.2617 293.5,52.5 Z"/></g>
<g><path style="opacity:0.889" fill="#f7fcf6" d="M 298.5,59.5 C 299.822,59.33 300.989,59.6634 302,60.5C 304.073,63.7297 305.906,67.063 307.5,70.5C 307.167,71.1667 306.833,71.8333 306.5,72.5C 305.53,69.2263 304.03,66.2263 302,63.5C 300.989,62.6634 299.822,62.33 298.5,62.5C 298.5,61.5 298.5,60.5 298.5,59.5 Z"/></g>
<g><path style="opacity:0.678" fill="#f7fbf4" d="M 308.5,73.5 C 311.229,76.7554 312.229,80.4221 311.5,84.5C 309.722,81.054 308.722,77.3874 308.5,73.5 Z"/></g>
<g><path style="opacity:0.965" fill="#f9fcf8" d="M 137.5,58.5 C 138.873,58.3433 140.207,58.51 141.5,59C 139.14,60.365 137.473,62.365 136.5,65C 137.357,65.6891 138.023,66.5224 138.5,67.5C 137.5,68.8333 136.5,70.1667 135.5,71.5C 136.737,72.2807 137.737,73.2807 138.5,74.5C 137.236,74.6399 136.069,74.6399 135,74.5C 134.346,80.46 132.846,86.1267 130.5,91.5C 131.446,80.369 133.78,69.369 137.5,58.5 Z"/></g>
<g><path style="opacity:0.984" fill="#f5fdf6" d="M 128.5,93.5 C 130.026,94.4919 130.693,95.9919 130.5,98C 130.167,99.1667 129.833,100.333 129.5,101.5C 128.52,98.9135 128.187,96.2469 128.5,93.5 Z"/></g>
<g><path style="opacity:0.934" fill="#fefefe" d="M 69.5,116.5 C 81.5758,116.062 93.5758,116.562 105.5,118C 107.125,118.853 107.458,119.853 106.5,121C 113.772,136.956 124.772,149.956 139.5,160C 179.959,185.161 223.959,194.494 271.5,188C 284.541,184.547 296.874,179.547 308.5,173C 311.797,170.705 314.797,168.038 317.5,165C 319.365,163.699 321.365,163.365 323.5,164C 344.577,172.627 363.077,185.127 379,201.5C 385.267,208.301 387.934,216.301 387,225.5C 385.698,229.274 383.531,232.441 380.5,235C 374.79,238.855 368.79,242.188 362.5,245C 342.342,251.582 321.675,255.582 300.5,257C 215.417,261.311 136.417,241.978 63.5,199C 47.9999,189.822 34.8333,177.989 24,163.5C 16.5376,151.295 18.3709,140.795 29.5,132C 41.7619,123.752 55.0953,118.585 69.5,116.5 Z"/></g>
<g><path style="opacity:0.964" fill="#f7fdf5" d="M 126.5,102.5 C 127.695,102.866 128.361,103.699 128.5,105C 128.025,106.763 127.358,108.43 126.5,110C 127.738,112.618 127.738,115.285 126.5,118C 127.029,119.559 127.696,121.059 128.5,122.5C 128,122.833 127.5,123.167 127,123.5C 125.133,122.623 123.966,121.123 123.5,119C 124.804,113.577 125.804,108.077 126.5,102.5 Z"/></g>
<g><path style="opacity:0.874" fill="#f8fcf6" d="M 70.5,118.5 C 74.5443,117.958 78.211,118.791 81.5,121C 79.2037,121.091 76.8704,120.924 74.5,120.5C 69.3663,121.754 64.1997,122.754 59,123.5C 58.3828,122.551 58.5494,121.718 59.5,121C 62.8333,120.667 66.1667,120.333 69.5,120C 70.056,119.617 70.3893,119.117 70.5,118.5 Z"/></g>
<g><path style="opacity:1" fill="#f7fdf7" d="M 308.5,112.5 C 310.464,112.977 311.798,114.144 312.5,116C 308.628,126.405 306.128,137.238 305,148.5C 303.026,150.652 301.193,150.319 299.5,147.5C 300.563,145.179 302.063,144.179 304,144.5C 304.997,137.648 306.497,130.981 308.5,124.5C 308.182,123.353 307.516,122.519 306.5,122C 308.662,119.021 309.328,115.854 308.5,112.5 Z"/></g>
<g><path style="opacity:0.902" fill="#f6fcf7" d="M 40.5,127.5 C 42.0481,127.821 42.7148,128.821 42.5,130.5C 40.3356,132.628 37.1689,134.295 33,135.5C 32.3333,134.5 32.3333,133.5 33,132.5C 35.8239,131.182 38.3239,129.515 40.5,127.5 Z"/></g>
<g><path style="opacity:0.994" fill="#f7fcf7" d="M 104.5,124.5 C 107.36,129.169 110.526,133.835 114,138.5C 115.187,140.044 115.52,141.711 115,143.5C 113.039,141.147 110.873,138.98 108.5,137C 108.833,136.667 109.167,136.333 109.5,136C 108.809,134.933 108.309,133.766 108,132.5C 106.844,133.993 106.01,133.826 105.5,132C 105.297,129.742 104.964,127.242 104.5,124.5 Z"/></g>
<g><path style="opacity:0.851" fill="#f6fcf7" d="M 144.5,135.5 C 145.586,135.62 146.253,136.287 146.5,137.5C 145.448,139.223 145.448,140.89 146.5,142.5C 148.167,143.5 149.5,144.833 150.5,146.5C 150.167,146.833 149.833,147.167 149.5,147.5C 146.683,145.183 144.016,142.683 141.5,140C 143.117,138.908 144.117,137.408 144.5,135.5 Z"/></g>
<g><path style="opacity:0.829" fill="#f7fcf7" d="M 27.5,136.5 C 29.2252,136.843 29.7252,137.843 29,139.5C 26.8918,141.382 25.5585,143.715 25,146.5C 24.6667,145.833 24.3333,145.167 24,144.5C 23.3901,148.236 23.7235,151.903 25,155.5C 25.3076,154.692 25.8076,154.025 26.5,153.5C 26.8806,157.442 28.2139,160.942 30.5,164C 30.3699,165.059 29.8699,165.892 29,166.5C 19.7522,156.818 19.2522,146.818 27.5,136.5 Z"/></g>
<g><path style="opacity:0.995" fill="#fafdf6" d="M 153.5,147.5 C 159.246,146.59 161.08,148.59 159,153.5C 156.273,152.241 154.439,150.241 153.5,147.5 Z"/></g>
<g><path style="opacity:0.908" fill="#f4fcf3" d="M 117.5,144.5 C 121.415,146.743 124.749,149.743 127.5,153.5C 126.277,154.614 124.944,154.781 123.5,154C 121.315,150.975 119.315,147.808 117.5,144.5 Z"/></g>
<g><path style="opacity:0.659" fill="#f3fcf0" d="M 302.5,152.5 C 303.289,152.783 303.956,153.283 304.5,154C 303.853,155.609 303.02,157.109 302,158.5C 301.51,156.455 301.677,154.455 302.5,152.5 Z"/></g>
<g><path style="opacity:0.839" fill="#f7fdf6" d="M 172.5,157.5 C 176.171,159.336 179.838,161.169 183.5,163C 178.909,162.693 174.576,161.36 170.5,159C 171.416,158.722 172.082,158.222 172.5,157.5 Z"/></g>
<g><path style="opacity:0.975" fill="#f6fdf5" d="M 296.5,154.5 C 297.693,154.97 298.36,155.97 298.5,157.5C 297.56,163.645 294.894,164.645 290.5,160.5C 292.135,159.319 293.802,159.319 295.5,160.5C 295.813,158.48 296.146,156.48 296.5,154.5 Z"/></g>
<g><path style="opacity:1" fill="#f9fdf6" d="M 284.5,163.5 C 291.138,165.883 290.805,167.05 283.5,167C 284.337,165.989 284.67,164.822 284.5,163.5 Z"/></g>
<g><path style="opacity:0.859" fill="#f5fcf7" d="M 318.5,166.5 C 320.758,166.775 321.092,167.775 319.5,169.5C 322.167,170.5 322.167,171.5 319.5,172.5C 318.5,171.5 317.5,170.5 316.5,169.5C 317.193,168.482 317.859,167.482 318.5,166.5 Z"/></g>
<g><path style="opacity:0.871" fill="#f7fcf6" d="M 324.5,167.5 C 332.408,170.492 332.742,171.492 325.5,170.5C 324.873,169.583 324.539,168.583 324.5,167.5 Z"/></g>
<g><path style="opacity:0.938" fill="#f7fcf6" d="M 141.5,164.5 C 148.028,168.178 154.695,171.678 161.5,175C 161,175.5 160.5,176 160,176.5C 153.389,174.042 146.889,171.376 140.5,168.5C 141.397,168.331 142.397,167.998 143.5,167.5C 142.388,166.735 141.721,165.735 141.5,164.5 Z"/></g>
<g><path style="opacity:0.995" fill="#f0fef1" d="M 229.5,172.5 C 230.978,172.238 232.311,172.571 233.5,173.5C 232.833,173.833 232.167,174.167 231.5,174.5C 230.287,174.253 229.62,173.586 229.5,172.5 Z"/></g>
<g><path style="opacity:0.983" fill="#f2fdf5" d="M 268.5,171.5 C 269.043,171.56 269.376,171.893 269.5,172.5C 260,175.417 250.333,176.083 240.5,174.5C 250.021,173.849 259.354,172.849 268.5,171.5 Z"/></g>
<g><path style="opacity:0.878" fill="#f8fcf6" d="M 299.5,181.5 C 304.607,178.438 309.607,175.105 314.5,171.5C 315.386,172.325 315.719,173.325 315.5,174.5C 311.603,176.121 307.936,178.288 304.5,181C 302.866,181.494 301.199,181.66 299.5,181.5 Z"/></g>
<g><path style="opacity:0.997" fill="#f1fdf2" d="M 163.5,176.5 C 165.355,176.272 166.188,176.939 166,178.5C 161.898,180.171 161.064,179.504 163.5,176.5 Z"/></g>
<g><path style="opacity:0.888" fill="#f7fcf6" d="M 340.5,177.5 C 341.251,176.427 342.251,176.26 343.5,177C 347.86,179.523 352.194,182.19 356.5,185C 355.975,185.692 355.308,186.192 354.5,186.5C 349.57,183.863 344.904,180.863 340.5,177.5 Z"/></g>
<g><path style="opacity:0.827" fill="#f7fdf6" d="M 42.5,173.5 C 44.9767,174.12 44.9767,175.12 42.5,176.5C 43.2634,177.719 44.2634,178.719 45.5,179.5C 45.1924,180.308 44.6924,180.975 44,181.5C 41.8762,180.378 40.0429,178.878 38.5,177C 40.3237,176.34 41.657,175.173 42.5,173.5 Z"/></g>
<g><path style="opacity:0.926" fill="#f7fcf8" d="M 299.5,181.5 C 299.586,182.496 299.252,183.329 298.5,184C 296.064,184.93 293.731,186.097 291.5,187.5C 290.205,186.902 288.872,186.402 287.5,186C 291.422,184.202 295.422,182.702 299.5,181.5 Z"/></g>
<g><path style="opacity:0.881" fill="#f6fdf7" d="M 45.5,183.5 C 45.9169,182.876 46.5836,182.543 47.5,182.5C 49.3822,183.531 51.3822,184.365 53.5,185C 54.5734,186.594 55.5734,188.094 56.5,189.5C 55.9984,190.521 55.3317,190.688 54.5,190C 51.6215,187.615 48.6215,185.448 45.5,183.5 Z"/></g>
<g><path style="opacity:0.899" fill="#f7fcf7" d="M 169.5,178.5 C 186.246,184.767 203.246,189.267 220.5,192C 210.837,191.336 201.17,190.336 191.5,189C 192.5,188.667 193.5,188.333 194.5,188C 190.541,186.393 186.541,186.227 182.5,187.5C 181.833,187.167 181.167,186.833 180.5,186.5C 181.641,185.575 181.641,184.741 180.5,184C 176.989,184.281 173.656,183.281 170.5,181C 169.748,180.329 169.414,179.496 169.5,178.5 Z"/></g>
<g><path style="opacity:0.815" fill="#f6fcf6" d="M 275.5,188.5 C 276.978,188.238 278.311,188.571 279.5,189.5C 274.5,190.833 269.5,192.167 264.5,193.5C 264.167,193.167 263.833,192.833 263.5,192.5C 267.443,190.786 271.443,189.453 275.5,188.5 Z"/></g>
<g><path style="opacity:0.795" fill="#f5fcf6" d="M 231.5,193.5 C 236.65,192.349 241.984,192.183 247.5,193C 245.782,193.346 244.115,193.846 242.5,194.5C 238.884,194.689 235.217,194.356 231.5,193.5 Z"/></g>
<g><path style="opacity:0.878" fill="#f3fdf3" d="M 249.5,192.5 C 251.924,192.192 254.257,192.526 256.5,193.5C 254.839,196.092 252.672,196.759 250,195.5C 249.517,194.552 249.351,193.552 249.5,192.5 Z"/></g>
<g><path style="opacity:0.999" fill="#f7fcf7" d="M 378.5,208.5 C 376.163,204.621 372.829,201.621 368.5,199.5C 367.914,199.709 367.414,200.043 367,200.5C 365.5,197 363,194.5 359.5,193C 360.451,192.282 360.617,191.449 360,190.5C 358.926,189.382 357.76,188.382 356.5,187.5C 357.79,186.592 359.123,186.759 360.5,188C 362.432,189.352 363.766,191.185 364.5,193.5C 367.788,192.462 368.121,193.128 365.5,195.5C 366.716,196.096 368.049,196.263 369.5,196C 373.947,199.257 376.947,203.424 378.5,208.5 Z"/></g>
<g><path style="opacity:0.908" fill="#f6fcf3" d="M 65.5,197.5 C 68.9989,196.602 71.9989,197.769 74.5,201C 76.1667,201.333 77.8333,201.667 79.5,202C 78.0696,203.44 76.403,203.774 74.5,203C 71.4721,201.156 68.4721,199.322 65.5,197.5 Z"/></g>
<g><path style="opacity:1" fill="#fefef5" d="M 356.5,198.5 C 359.297,198.967 360.631,200.633 360.5,203.5C 359.167,203.5 357.833,203.5 356.5,203.5C 356.5,201.833 356.5,200.167 356.5,198.5 Z"/></g>
<g><path style="opacity:0.816" fill="#f8fdf7" d="M 80.5,203.5 C 82.5452,205.984 85.2118,206.984 88.5,206.5C 88.5,207.5 88.5,208.5 88.5,209.5C 90.5988,208.769 92.5988,208.769 94.5,209.5C 93.8551,210.646 93.0217,211.646 92,212.5C 88.214,210.357 84.3807,208.357 80.5,206.5C 79.4376,205.575 79.4376,204.575 80.5,203.5 Z"/></g>
<g><path style="opacity:0.91" fill="#f7fcf5" d="M 378.5,208.5 C 379.496,208.414 380.329,208.748 381,209.5C 382.59,211.65 383.257,213.983 383,216.5C 381.223,213.941 379.723,211.274 378.5,208.5 Z"/></g>
<g><path style="opacity:0.95" fill="#f6fdf6" d="M 101.5,217.5 C 104.162,216.979 107.162,216.812 110.5,217C 111.337,218.011 111.67,219.178 111.5,220.5C 113.96,220.699 116.293,221.365 118.5,222.5C 117.277,223.614 115.944,223.781 114.5,223C 110.347,220.673 106.013,218.84 101.5,217.5 Z"/></g>
<g><path style="opacity:1" fill="#fbfdf6" d="M 374.5,228.5 C 378.195,230.132 378.195,231.465 374.5,232.5C 374.977,233.478 375.643,234.311 376.5,235C 372.194,234.248 371.527,232.082 374.5,228.5 Z"/></g>
<g><path style="opacity:0.901" fill="#f7fdf6" d="M 121.5,223.5 C 125.35,224.026 129.184,224.693 133,225.5C 134.054,226.482 134.554,227.649 134.5,229C 139.198,230.212 143.865,231.546 148.5,233C 149.993,234.156 149.826,234.99 148,235.5C 142.824,233.647 137.657,231.814 132.5,230C 132.065,228.501 130.899,227.001 129,225.5C 125.891,227.616 122.725,227.449 119.5,225C 120.416,224.722 121.082,224.222 121.5,223.5 Z"/></g>
<g><path style="opacity:0.865" fill="#f5fdf7" d="M 156.5,234.5 C 158.082,236.97 160.415,238.47 163.5,239C 160.015,239.297 156.682,238.631 153.5,237C 154.942,236.623 155.942,235.79 156.5,234.5 Z"/></g>
<g><path style="opacity:0.808" fill="#f3fdf3" d="M 166.5,239.5 C 170.751,239.927 174.751,241.093 178.5,243C 175.485,243.201 172.485,242.868 169.5,242C 167.881,241.764 166.881,240.931 166.5,239.5 Z"/></g>
<g><path style="opacity:0.998" fill="#f6fdf8" d="M 206.5,246.5 C 206.735,245.903 207.235,245.57 208,245.5C 212.987,249.084 218.487,250.417 224.5,249.5C 227.041,249.881 229.374,250.714 231.5,252C 235.167,252.333 238.833,252.667 242.5,253C 241.4,254.023 240.067,254.523 238.5,254.5C 223.948,252.226 209.281,250.059 194.5,248C 194.167,247.667 193.833,247.333 193.5,247C 197.309,246.412 200.976,246.912 204.5,248.5C 205.5,248.167 206.5,247.833 207.5,247.5C 207.376,246.893 207.043,246.56 206.5,246.5 Z"/></g>
<g><path style="opacity:0.723" fill="#f6fdf6" d="M 322.5,246.5 C 325.249,247.905 328.083,249.238 331,250.5C 334.256,248.571 337.756,248.071 341.5,249C 335.639,250.81 329.639,251.643 323.5,251.5C 323.371,249.784 323.038,248.117 322.5,246.5 Z"/></g>
<g><path style="opacity:0.824" fill="#f4fdf4" d="M 317.5,251.5 C 318.289,251.783 318.956,252.283 319.5,253C 315.088,254.497 310.755,254.497 306.5,253C 310.356,252.823 314.023,252.323 317.5,251.5 Z"/></g>
<g><path style="opacity:0.813" fill="#f3fdf5" d="M 245.5,254.5 C 263.662,253.338 281.995,253.171 300.5,254C 292.28,255.493 283.946,256.327 275.5,256.5C 265.488,255.928 255.488,255.261 245.5,254.5 Z"/></g>
</svg>
