<?xml version="1.0" encoding="UTF-8"?>
<!DOCTYPE svg PUBLIC "-//W3C//DTD SVG 1.1//EN" "http://www.w3.org/Graphics/SVG/1.1/DTD/svg11.dtd">
<svg xmlns="http://www.w3.org/2000/svg" version="1.1" width="300px" height="210px" style="shape-rendering:geometricPrecision; text-rendering:geometricPrecision; image-rendering:optimizeQuality; fill-rule:evenodd; clip-rule:evenodd" xmlns:xlink="http://www.w3.org/1999/xlink">
<g><path style="opacity:0.38" fill="#fedbc9" d="M 207.5,36.5 C 196.167,36.5 184.833,36.5 173.5,36.5C 163.432,33.8036 153.765,29.9703 144.5,25C 135.998,21.4175 127.665,21.7508 119.5,26C 114.378,29.2898 109.711,33.1231 105.5,37.5C 113.764,24.7024 125.43,19.5357 140.5,22C 150.728,26.6151 161.062,30.9484 171.5,35C 183.674,35.1693 195.674,35.6693 207.5,36.5 Z"/></g>
<g><path style="opacity:1" fill="#cb3432" d="M 173.5,36.5 C 185.326,37.3307 197.326,37.8307 209.5,38C 216.906,40.9136 222.572,45.7469 226.5,52.5C 229.408,60.0654 231.408,67.8987 232.5,76C 229.67,91.4888 226.336,106.822 222.5,122C 205.906,132.313 187.906,135.98 168.5,133C 158.496,131.099 148.496,129.266 138.5,127.5C 134.902,125.26 130.902,123.926 126.5,123.5C 120.508,120.17 114.508,116.837 108.5,113.5C 103.979,109.298 99.4788,104.964 95,100.5C 92.5345,97.8718 90.7012,94.8718 89.5,91.5C 92.2393,77.0607 95.4059,62.7274 99,48.5C 101.19,44.7781 103.356,41.1114 105.5,37.5C 109.711,33.1231 114.378,29.2898 119.5,26C 127.665,21.7508 135.998,21.4175 144.5,25C 153.765,29.9703 163.432,33.8036 173.5,36.5 Z"/></g>
<g><path style="opacity:0.333" fill="#f8ccb5" d="M 173.5,36.5 C 184.833,36.5 196.167,36.5 207.5,36.5C 216.872,38.2039 223.205,43.5372 226.5,52.5C 222.572,45.7469 216.906,40.9136 209.5,38C 197.326,37.8307 185.326,37.3307 173.5,36.5 Z"/></g>
<g><path style="opacity:0.184" fill="#fedccc" d="M 105.5,37.5 C 103.356,41.1114 101.19,44.7781 99,48.5C 95.4059,62.7274 92.2393,77.0607 89.5,91.5C 90.7012,94.8718 92.5345,97.8718 95,100.5C 99.4788,104.964 103.979,109.298 108.5,113.5C 99.6854,108.185 92.6854,101.018 87.5,92C 90.8234,78.2389 93.9901,64.4056 97,50.5C 98.8502,45.4508 101.684,41.1174 105.5,37.5 Z"/></g>
<g><path style="opacity:1" fill="#cb3432" d="M 47.5,91.5 C 47.8333,91.5 48.1667,91.5 48.5,91.5C 57.1911,91.368 65.8577,91.7013 74.5,92.5C 74.8257,95.3113 75.6591,97.978 77,100.5C 83.3319,110.665 91.4986,118.998 101.5,125.5C 102.128,128.09 103.295,130.423 105,132.5C 105.414,132.043 105.914,131.709 106.5,131.5C 110.008,133.128 113.675,134.294 117.5,135C 120.712,138.433 124.712,139.933 129.5,139.5C 129.833,139.5 130.167,139.5 130.5,139.5C 130.5,140.5 130.5,141.5 130.5,142.5C 136.936,143.758 143.27,145.258 149.5,147C 164.806,148.481 180.139,148.814 195.5,148C 199.218,147.627 202.551,146.461 205.5,144.5C 217.89,141.973 228.556,136.306 237.5,127.5C 243.343,130.76 249.343,133.426 255.5,135.5C 259.493,139.688 264.16,143.188 269.5,146C 273.369,150.037 277.369,153.87 281.5,157.5C 282.694,161.086 283.694,164.753 284.5,168.5C 284.373,171.387 283.373,173.887 281.5,176C 269.537,184.489 256.203,189.322 241.5,190.5C 230.503,191.981 219.336,192.648 208,192.5C 188.449,191.701 168.949,190.368 149.5,188.5C 145.466,188.328 141.466,187.828 137.5,187C 125.475,183.827 113.475,180.661 101.5,177.5C 91.476,173.314 81.476,168.814 71.5,164C 70.2068,163.51 68.8734,163.343 67.5,163.5C 66.8166,161.824 65.4832,161.157 63.5,161.5C 61.2118,158.544 58.2118,156.877 54.5,156.5C 52.4697,153.818 49.803,152.151 46.5,151.5C 45.1979,149.178 43.1979,147.845 40.5,147.5C 40.0269,146.094 39.0269,145.427 37.5,145.5C 32.5284,140.699 27.3618,136.032 22,131.5C 18.8372,127.844 16.1705,123.844 14,119.5C 13.3333,116.167 13.3333,112.833 14,109.5C 16.8688,106.296 20.0354,103.463 23.5,101C 31.4597,97.203 39.4597,94.0363 47.5,91.5 Z"/></g>
<g><path style="opacity:0.706" fill="#fbceb1" d="M 47.5,91.5 C 39.4597,94.0363 31.4597,97.203 23.5,101C 20.0354,103.463 16.8688,106.296 14,109.5C 13.3333,112.833 13.3333,116.167 14,119.5C 16.1705,123.844 18.8372,127.844 22,131.5C 27.3618,136.032 32.5284,140.699 37.5,145.5C 27.2337,139.735 19.067,131.735 13,121.5C 11.1053,117.148 11.1053,112.815 13,108.5C 22.4042,98.7149 33.9042,93.0483 47.5,91.5 Z"/></g>
<g><path style="opacity:0.188" fill="#ffdccd" d="M 108.5,113.5 C 114.508,116.837 120.508,120.17 126.5,123.5C 119.567,121.704 113.567,118.37 108.5,113.5 Z"/></g>
<g><path style="opacity:0.416" fill="#fdceb3" d="M 48.5,91.5 C 52.4861,90.8343 56.6528,90.501 61,90.5C 65.9435,90.3881 70.7768,90.8881 75.5,92C 81.5424,107.381 91.8757,119.048 106.5,127C 110.722,128.941 114.722,131.108 118.5,133.5C 112.19,132.178 106.524,129.512 101.5,125.5C 91.4986,118.998 83.3319,110.665 77,100.5C 75.6591,97.978 74.8257,95.3113 74.5,92.5C 65.8577,91.7013 57.1911,91.368 48.5,91.5 Z"/></g>
<g><path style="opacity:0.067" fill="#ffe2d8" d="M 126.5,123.5 C 130.902,123.926 134.902,125.26 138.5,127.5C 134.085,127.139 130.085,125.806 126.5,123.5 Z"/></g>
<g><path style="opacity:0.071" fill="#fddccc" d="M 226.5,52.5 C 231.227,59.6925 233.56,67.6925 233.5,76.5C 231.579,89.9365 229.079,103.27 226,116.5C 225.771,119.458 224.604,121.958 222.5,124C 203.016,135.025 182.349,138.025 160.5,133C 152.932,131.592 145.598,129.759 138.5,127.5C 148.496,129.266 158.496,131.099 168.5,133C 187.906,135.98 205.906,132.313 222.5,122C 226.336,106.822 229.67,91.4888 232.5,76C 231.408,67.8987 229.408,60.0654 226.5,52.5 Z"/></g>
<g><path style="opacity:0.396" fill="#facbad" d="M 255.5,135.5 C 249.343,133.426 243.343,130.76 237.5,127.5C 228.556,136.306 217.89,141.973 205.5,144.5C 201.865,145.114 198.198,145.448 194.5,145.5C 210.767,143.074 225.1,136.407 237.5,125.5C 243.885,128.354 249.885,131.687 255.5,135.5 Z"/></g>
<g><path style="opacity:1" fill="#c44530" d="M 101.5,125.5 C 106.524,129.512 112.19,132.178 118.5,133.5C 119.287,135.104 120.62,135.771 122.5,135.5C 122.369,136.376 122.702,137.043 123.5,137.5C 125.657,138.05 127.657,138.717 129.5,139.5C 124.712,139.933 120.712,138.433 117.5,135C 113.675,134.294 110.008,133.128 106.5,131.5C 105.914,131.709 105.414,132.043 105,132.5C 103.295,130.423 102.128,128.09 101.5,125.5 Z"/></g>
<g><path style="opacity:0.31" fill="#fcdfbe" d="M 118.5,133.5 C 120.153,133.66 121.486,134.326 122.5,135.5C 120.62,135.771 119.287,135.104 118.5,133.5 Z"/></g>
<g><path style="opacity:0.455" fill="#fcccb0" d="M 255.5,135.5 C 266.295,140.293 274.962,147.627 281.5,157.5C 277.369,153.87 273.369,150.037 269.5,146C 264.16,143.188 259.493,139.688 255.5,135.5 Z"/></g>
<g><path style="opacity:0.514" fill="#fbccac" d="M 122.5,135.5 C 135.324,139.955 148.324,143.289 161.5,145.5C 161.5,145.833 161.5,146.167 161.5,146.5C 150.73,145.814 140.396,143.481 130.5,139.5C 130.167,139.5 129.833,139.5 129.5,139.5C 127.657,138.717 125.657,138.05 123.5,137.5C 122.702,137.043 122.369,136.376 122.5,135.5 Z"/></g>
<g><path style="opacity:0.341" fill="#fddac2" d="M 37.5,145.5 C 39.0269,145.427 40.0269,146.094 40.5,147.5C 38.9731,147.573 37.9731,146.906 37.5,145.5 Z"/></g>
<g><path style="opacity:1" fill="#c14732" d="M 130.5,139.5 C 140.396,143.481 150.73,145.814 161.5,146.5C 171.325,147.658 181.325,147.825 191.5,147C 192.737,146.768 193.737,146.268 194.5,145.5C 198.198,145.448 201.865,145.114 205.5,144.5C 202.551,146.461 199.218,147.627 195.5,148C 180.139,148.814 164.806,148.481 149.5,147C 143.27,145.258 136.936,143.758 130.5,142.5C 130.5,141.5 130.5,140.5 130.5,139.5 Z"/></g>
<g><path style="opacity:0.369" fill="#fad1b8" d="M 161.5,145.5 C 172.5,146.833 183.5,146.833 194.5,145.5C 193.737,146.268 192.737,146.768 191.5,147C 181.325,147.825 171.325,147.658 161.5,146.5C 161.5,146.167 161.5,145.833 161.5,145.5 Z"/></g>
<g><path style="opacity:0.216" fill="#fed5be" d="M 40.5,147.5 C 43.1979,147.845 45.1979,149.178 46.5,151.5C 43.8021,151.155 41.8021,149.822 40.5,147.5 Z"/></g>
<g><path style="opacity:0.251" fill="#fcd4ba" d="M 46.5,151.5 C 49.803,152.151 52.4697,153.818 54.5,156.5C 51.2957,155.617 48.6291,153.95 46.5,151.5 Z"/></g>
<g><path style="opacity:0.18" fill="#f8cbbb" d="M 54.5,156.5 C 58.2118,156.877 61.2118,158.544 63.5,161.5C 60.0078,160.59 57.0078,158.924 54.5,156.5 Z"/></g>
<g><path style="opacity:1" fill="#ecb69e" d="M 63.5,161.5 C 65.4832,161.157 66.8166,161.824 67.5,163.5C 65.847,163.34 64.5137,162.674 63.5,161.5 Z"/></g>
<g><path style="opacity:0.094" fill="#fed2b9" d="M 67.5,163.5 C 68.8734,163.343 70.2068,163.51 71.5,164C 81.476,168.814 91.476,173.314 101.5,177.5C 89.5375,174.184 78.2042,169.517 67.5,163.5 Z"/></g>
<g><path style="opacity:0.067" fill="#fcd6be" d="M 281.5,157.5 C 288.422,164.918 288.089,172.085 280.5,179C 265.177,188.167 248.511,193 230.5,193.5C 234.102,192.225 237.769,191.225 241.5,190.5C 256.203,189.322 269.537,184.489 281.5,176C 283.373,173.887 284.373,171.387 284.5,168.5C 283.694,164.753 282.694,161.086 281.5,157.5 Z"/></g>
<g><path style="opacity:0.29" fill="#fdd4bc" d="M 101.5,177.5 C 113.475,180.661 125.475,183.827 137.5,187C 141.466,187.828 145.466,188.328 149.5,188.5C 152.535,189.374 155.535,190.374 158.5,191.5C 138.762,189.358 119.762,184.691 101.5,177.5 Z"/></g>
<g><path style="opacity:0.58" fill="#f7caac" d="M 158.5,191.5 C 177.788,193.199 197.121,193.866 216.5,193.5C 207.348,194.494 198.015,194.827 188.5,194.5C 178.244,194.655 168.244,193.655 158.5,191.5 Z"/></g>
<g><path style="opacity:1" fill="#c04533" d="M 149.5,188.5 C 168.949,190.368 188.449,191.701 208,192.5C 219.336,192.648 230.503,191.981 241.5,190.5C 237.769,191.225 234.102,192.225 230.5,193.5C 225.833,193.5 221.167,193.5 216.5,193.5C 197.121,193.866 177.788,193.199 158.5,191.5C 155.535,190.374 152.535,189.374 149.5,188.5 Z"/></g>
<g><path style="opacity:0.09" fill="#fff5db" d="M 216.5,193.5 C 221.167,193.5 225.833,193.5 230.5,193.5C 221.876,194.93 213.043,195.597 204,195.5C 198.656,195.499 193.489,195.166 188.5,194.5C 198.015,194.827 207.348,194.494 216.5,193.5 Z"/></g>
</svg>
